<svg width="280" height="40" viewBox="0 0 280 40" fill="none" xmlns="http://www.w3.org/2000/svg">
<path d="M42.7487 16.7779L40.6729 22.5625L41.3891 22.8144L43.4649 17.0298L42.7487 16.7779Z" fill="white"/>
<path d="M8.75999 18.4959C8.31999 19.2484 8.11999 20.1197 8.11999 21.1098C8.23999 22.694 8.99999 23.9218 10.28 24.7139C11.12 25.2288 12.08 25.4664 13.16 25.4664C13.76 25.4664 14.4 25.3872 15.04 25.2288C15.68 25.0704 16.32 24.8327 17.04 24.4763C17.72 24.1198 18.36 23.6446 18.96 23.1297C19.56 22.5752 20.08 21.9019 20.44 21.189C20.84 20.4365 21.08 19.6048 21.12 18.7335C21.12 17.3869 20.52 16.3572 19.32 15.7235C18.68 15.3671 17.92 15.2086 17.08 15.2086C16.68 15.2086 16.2 15.2482 15.72 15.3275C16.28 14.971 16.92 14.6146 17.64 14.2185C17.92 14.0997 18.4 13.8621 19.16 13.5848C19.48 13.5056 19.8 13.4264 20.16 13.3472C20.48 13.268 20.8 13.2284 21.12 13.1492C21.4 13.1096 21.72 13.0304 22.12 12.9511C22.4 12.9115 22.6 12.6739 22.6 12.3571V10.9313C22.6 10.7332 22.52 10.5748 22.36 10.456C22.24 10.3768 22.12 10.3372 22 10.3372C21.92 10.3372 21.88 10.3372 21.8 10.3768L21.04 10.6144C20.8 10.6936 20.56 10.7729 20.32 10.8125L19.64 11.0897C19.4 11.1689 19.16 11.2481 18.88 11.3273L18.04 11.6046C17.76 11.6838 16.64 12.0402 16.36 12.159C16.36 12.159 16.32 12.159 16.28 12.159V9.6639C16.28 9.46588 16.2 9.30746 16.04 9.18864C15.92 9.10943 15.8 9.06982 15.68 9.06982C15.64 9.06982 15.6 9.06982 15.56 9.06982C14.36 9.34706 13.24 9.58469 12.2 9.74311C11.92 9.78272 11.72 10.0204 11.72 10.3372V10.8521C11.72 11.0105 11.8 11.2085 11.92 11.2877C12.04 11.3669 12.16 11.4065 12.32 11.4065H12.44C12.6 11.3669 12.72 11.3669 12.8 11.3669C12.92 11.3669 13 11.4065 13 11.4065C13.12 11.4461 13.16 11.5254 13.2 11.565C13.24 11.6046 13.28 11.7234 13.28 11.8422V12.8323C11.88 13.1492 10.64 13.3868 9.43999 13.5452C9.11999 13.5848 8.83999 13.6244 8.55999 13.6244C8.31999 13.6244 8.15999 13.6244 7.99999 13.5848C7.59999 13.5056 7.47999 13.3868 7.43999 13.3868C7.39999 13.3472 7.39999 13.3076 7.39999 13.2284C7.39999 12.9115 7.11999 12.6739 6.79999 12.6739C6.79999 12.6739 6.43999 12.6739 6.27999 12.6739C5.95999 12.6739 5.67999 12.9511 5.67999 13.268V15.5255C5.67999 15.6839 5.75999 15.8423 5.83999 15.9611C5.95999 16.08 6.11999 16.1196 6.27999 16.1196C7.07999 16.1196 7.91999 16.08 8.79999 16.0007C9.59999 15.9215 10.4 15.8027 11.28 15.6443C10.92 15.9215 10.6 16.1988 10.28 16.5156C9.67999 17.1097 9.15999 17.783 8.75999 18.4959ZM12.2 18.2582C12.88 17.4661 13.64 16.7532 14.44 16.1592L14.48 16.1196L14.52 16.7929C14.52 16.9513 14.6 17.1097 14.72 17.2285C14.84 17.3077 14.96 17.3869 15.16 17.3869C15.52 17.3473 15.84 17.3473 16.12 17.3473C16.88 17.3473 17.4 17.4661 17.64 17.7434C18.04 18.1394 18.2 18.6543 18.16 19.2484C18.12 20.0801 17.76 20.8326 17.16 21.5455C16.52 22.2584 15.72 22.8129 14.72 23.0901C14.44 23.1693 14.16 23.2089 13.88 23.2089C13.72 23.2089 13.56 23.2089 13.4 23.1693C13 23.0901 12.6 22.9713 12.28 22.7336C11.96 22.496 11.68 22.2188 11.48 21.8623C11.28 21.5455 11.2 21.1494 11.24 20.6742C11.28 19.8029 11.6 19.0107 12.2 18.2582Z" fill="white"/>
<path d="M16.16 34.5753C16.92 34.8129 17.84 34.9317 18.84 34.9317H19.12C20.2 34.8921 21.36 34.7337 22.64 34.4168C23.84 34.1 25 33.7039 26.08 33.1891C27.16 32.6742 28.12 32.1197 28.92 31.5257C29.76 30.892 30.4 30.2583 30.92 29.5454C31.44 28.7929 31.72 28.0008 31.72 27.2087C31.72 26.4166 31.44 25.6641 30.88 25.07C30.36 24.4759 29.64 24.0007 28.8 23.6838C27.92 23.367 26.96 23.2086 25.88 23.1689H25.64C24.64 23.1689 23.52 23.3274 22.4 23.6046C21.2 23.9214 20 24.3571 18.92 24.9116C17.84 25.4661 16.92 26.0601 16.12 26.6938C15.28 27.3275 14.64 28.0404 14.16 28.7533C13.64 29.5454 13.36 30.2979 13.36 31.0504C13.32 31.8821 13.6 32.6346 14.16 33.2287C14.6 33.8624 15.32 34.298 16.16 34.5753ZM16.88 29.5058C17.2 29.0305 17.6 28.5553 18.16 28.1196C18.72 27.6443 19.4 27.2087 20.16 26.8126C20.92 26.4166 21.76 26.0997 22.64 25.8621C23.48 25.6641 24.24 25.5453 24.96 25.5453H25.08C25.8 25.5453 26.48 25.6641 27.04 25.8621C27.52 26.0205 27.92 26.2582 28.24 26.575C28.48 26.8522 28.6 27.1691 28.6 27.5255C28.6 27.9216 28.44 28.278 28.16 28.7137C27.84 29.1889 27.44 29.585 26.84 30.0207C26.28 30.4959 25.6 30.9316 24.84 31.288C24.08 31.6445 23.24 31.9613 22.36 32.1989C21.44 32.4366 20.6 32.5554 19.88 32.595H19.68C19.04 32.595 18.44 32.5158 17.96 32.3574C17.48 32.1989 17.08 32.0009 16.8 31.7237C16.56 31.4464 16.44 31.1692 16.44 30.8128C16.44 30.3771 16.6 29.9414 16.88 29.5058Z" fill="white"/>
<path d="M32.2 14.0598V5.22787C32.2 5.06945 32.12 4.91103 32 4.79221C31.88 4.713 31.76 4.63379 31.56 4.63379C30.12 4.79221 28.6 5.02984 26.92 5.38629C26.64 5.42589 26.44 5.70313 26.44 5.98037V6.57445C26.44 6.77247 26.52 6.93089 26.68 7.04971C26.8 7.12892 26.92 7.16853 27.04 7.16853C27.08 7.16853 27.12 7.16853 27.16 7.16853C27.6 7.08932 27.96 7.04971 28.24 7.04971H28.28C28.52 7.08931 28.72 7.16853 28.92 7.28734C29.04 7.36655 29.08 7.56458 29.08 7.7626V12.6737C28.2 12.8321 27.28 12.9905 26.28 13.2281V7.40616C26.28 7.20813 26.2 7.04971 26.04 6.93089C25.92 6.85168 25.8 6.81208 25.68 6.81208C25.64 6.81208 25.6 6.81208 25.56 6.81208C24 7.16853 22.44 7.56458 20.88 8.00024C20.6 8.07945 20.44 8.31708 20.44 8.55471V9.14879C20.44 9.30721 20.52 9.50524 20.64 9.58445C20.76 9.66366 20.88 9.70326 21 9.70326H21.12C21.52 9.62405 21.88 9.58445 22.16 9.58445C22.24 9.58445 22.28 9.58445 22.36 9.58445C22.6 9.58445 22.84 9.66366 23.04 9.74287C23.08 9.78247 23.16 9.78247 23.16 10.0597V22.6146C23.16 22.8126 23.24 22.971 23.4 23.0898C23.52 23.1691 23.64 23.2087 23.76 23.2087C23.8 23.2087 23.84 23.2087 23.92 23.2087L24.88 22.971C25.12 22.9314 25.28 22.7334 25.32 22.5354C25.84 20.0798 26.12 17.7431 26.2 15.5252C27.24 15.2876 28.2 15.0896 29.08 14.9708V22.773C29.08 22.9314 29.16 23.0898 29.28 23.2087C29.4 23.2879 29.52 23.3671 29.68 23.3671H29.76C30.08 23.3275 30.4 23.2879 30.72 23.2483C30.96 23.2087 31.16 23.0502 31.2 22.8126C31.4 22.1393 31.56 21.466 31.72 20.7135C31.84 20.0402 31.92 19.1293 32.04 18.0204C32.16 16.9114 32.2 15.5648 32.2 14.0598Z" fill="white"/>
<path d="M89.3656 16.7925L87.2892 22.5771L88.0054 22.8292L90.0818 17.0446L89.3656 16.7925Z" fill="white"/>
<path d="M71.92 33.625C72.04 33.7042 72.16 33.7438 72.28 33.7438C72.32 33.7438 72.36 33.7438 72.4 33.7438C72.72 33.6646 73.08 33.625 73.4 33.5457C73.64 33.5061 73.84 33.3081 73.88 33.0705C74.44 29.704 74.72 26.3772 74.68 23.2088C74.68 23.0503 74.6 22.8523 74.44 22.7731C74.32 22.6939 74.2 22.6543 74.08 22.6543C74.04 22.6543 74 22.6543 73.96 22.6543C71.08 23.2484 68.2 24.1197 65.36 24.991L65.24 25.0306C64.08 25.3871 62.92 25.7435 61.76 26.0604C61.16 26.2188 60.6 26.3772 60.04 26.4564C59.52 26.5752 59.04 26.6544 58.56 26.694C58.12 26.7732 57.68 26.8128 57.2 26.8128C56.88 26.8128 56.6 27.0901 56.6 27.4069V28.9119C56.6 29.11 56.68 29.2684 56.8 29.3872C56.92 29.4664 57.04 29.506 57.16 29.506C57.2 29.506 57.24 29.506 57.28 29.506C60.08 28.9119 62.92 28.0802 65.72 27.2881C67.64 26.7336 69.64 26.1396 71.64 25.6247V33.1893C71.72 33.3477 71.8 33.5061 71.92 33.625Z" fill="white"/>
<path d="M76.8 21.1494C77.04 21.1494 77.24 21.1098 77.52 21.1098C77.76 21.1098 78 21.1098 78.28 21.1098C78.44 21.1098 78.56 21.0702 78.68 20.9514C78.8 20.8326 78.88 20.6741 78.88 20.5157V19.0107C78.88 18.8523 78.8 18.6939 78.68 18.5751C78.56 18.4562 78.44 18.4166 78.24 18.4166C74.44 18.7335 70.64 19.7236 66.8 20.7929V19.2483C68.28 18.8523 69.88 18.4562 71.52 18.0998C71.52 18.2582 71.6 18.377 71.72 18.4958C71.84 18.5751 71.96 18.6147 72.08 18.6147C72.12 18.6147 72.16 18.6147 72.2 18.6147C72.6 18.5354 72.96 18.4562 73.36 18.377C73.56 18.3374 73.76 18.179 73.8 17.981C73.96 17.4661 74.08 16.9116 74.2 16.3572C74.28 15.8027 74.36 15.0898 74.48 14.2185C74.56 13.3472 74.6 12.2778 74.6 11.0104V6.45584C74.6 6.29742 74.52 6.09939 74.4 6.02018C74.28 5.94097 74.16 5.90137 74 5.90137H73.88C72.44 6.139 70.92 6.49545 69 6.9311C68.72 7.01031 68.56 7.24795 68.56 7.48558V8.07966C68.56 8.27768 68.64 8.4361 68.8 8.55492C68.92 8.63413 69.04 8.67374 69.16 8.67374C69.2 8.67374 69.24 8.67374 69.32 8.67374C69.76 8.55492 70.12 8.51531 70.4 8.51531C70.52 8.51531 70.64 8.51531 70.72 8.55492C71.16 8.67374 71.28 8.75295 71.28 8.75295C71.36 8.83216 71.44 8.99058 71.48 9.10939V11.1689C69.44 11.6045 67.44 12.1194 65.48 12.6343C63.72 13.1095 61.88 13.5848 60.08 13.9808V11.0104C60.08 10.8124 60 10.654 59.84 10.5352C59.72 10.456 59.6 10.4164 59.48 10.4164C59.44 10.4164 59.4 10.4164 59.36 10.4164C57.6 10.8124 56.04 11.0501 54.56 11.2085C54.24 11.2481 54.04 11.4857 54.04 11.8026V12.3966C54.04 12.5551 54.12 12.7135 54.24 12.8323C54.36 12.9115 54.48 12.9907 54.68 12.9907C54.96 12.9511 55.2 12.9511 55.4 12.9511C55.68 12.9511 55.92 12.9907 56.08 13.0303C56.44 13.1491 56.64 13.2679 56.68 13.3076C56.76 13.4264 56.84 13.5848 56.92 13.7036V21.6247C56.92 21.7831 57 21.9811 57.12 22.0603C57.24 22.1395 57.36 22.1791 57.52 22.1791H57.64C58 22.0999 58.4 22.0207 58.76 21.9811C58.92 21.9415 59.04 21.8623 59.16 21.7039C59.24 21.5851 59.28 21.4662 59.36 21.2682C59.36 21.2286 59.4 21.189 59.4 21.1494C60.92 20.8326 62.44 20.4365 63.68 20.1197V21.7039C61.16 22.4168 58.44 23.1297 55.8 23.5653C55.4 23.6445 55.04 23.6841 54.76 23.6841C54.6 23.6841 54.48 23.6841 54.36 23.6445C53.96 23.5653 53.8 23.4861 53.76 23.4465C53.72 23.4069 53.68 23.4069 53.68 23.2881C53.64 23.0108 53.4 22.8128 53.08 22.8128L52.52 22.8524C52.2 22.8524 51.96 23.1297 51.96 23.4465V25.704C51.96 25.8624 52.04 26.0208 52.16 26.1397C52.28 26.2585 52.4 26.2981 52.56 26.2981H52.6C57.04 26.0208 61.48 24.7535 65.84 23.5257C68.44 22.8128 71.12 22.0207 73.72 21.5058C74.28 21.387 74.84 21.3078 75.4 21.2682C75.84 21.189 76.32 21.1494 76.8 21.1494ZM65.4 17.2681C63.56 17.7433 61.68 18.2582 59.8 18.6543C59.84 18.3374 59.88 18.0602 59.88 17.8226C59.92 17.4265 59.96 16.9512 60 16.3176C61.92 15.8819 63.84 15.4066 65.72 14.8918C67.6 14.4165 69.52 13.9016 71.4 13.466V15.7631C69.4 16.2383 67.4 16.7532 65.4 17.2681Z" fill="white"/>
<path d="M105.8 9.82229C104.92 10.456 104.16 11.1293 103.56 11.8818C102.88 12.7135 102.56 13.5848 102.56 14.5353C102.56 15.6443 102.92 16.5156 103.6 17.1493C104.24 17.7829 105.08 18.179 106.08 18.377C106.64 18.4958 107.24 18.5354 107.88 18.5354C108.32 18.5354 108.84 18.4958 109.32 18.4562C110.44 18.2978 111.6 18.0602 112.8 17.7037C113.8 17.4265 114.8 17.0304 115.8 16.5948C116.8 16.1591 117.72 15.6443 118.56 15.0502C119.44 14.4561 120.12 13.8224 120.64 13.1491C121.2 12.3966 121.48 11.5649 121.48 10.654C121.48 9.66387 121.12 8.91137 120.36 8.3965C119.72 7.92124 118.92 7.644 118 7.52519C117.72 7.48558 117.4 7.48558 117.08 7.48558C116.48 7.48558 115.84 7.56479 115.2 7.644C114.6 7.76282 114.04 7.88163 113.52 8.07966V5.78256C113.52 5.58453 113.44 5.42611 113.28 5.30729C113.16 5.22808 113.04 5.18848 112.92 5.18848C112.88 5.18848 112.8 5.18848 112.76 5.18848L112.04 5.3865C111.12 5.62413 110.2 5.86177 109.28 6.0994C109 6.17861 108.84 6.41624 108.84 6.65387V7.24795C108.84 7.40637 108.92 7.56479 109.04 7.68361C109.12 7.76282 109.24 7.80242 109.36 7.80242C109.08 7.92124 108.76 8.07966 108.44 8.23808C107.56 8.71334 106.64 9.22821 105.8 9.82229ZM112.4 8.95098V9.58466C112.4 9.78269 112.48 9.94111 112.64 10.0599C112.76 10.1391 112.88 10.1787 113 10.1787C113.08 10.1787 113.12 10.1787 113.2 10.1391C113.92 9.9015 114.64 9.74308 115.28 9.70348C115.48 9.70348 115.68 9.66387 115.84 9.66387C116.24 9.66387 116.64 9.70348 116.96 9.78269C117.4 9.9015 117.76 10.0995 118 10.3372C118.24 10.5748 118.36 10.8124 118.4 11.0897C118.4 11.4461 118.28 11.8026 118 12.1986C117.68 12.6343 117.24 13.0303 116.64 13.4264C116.08 13.8224 115.4 14.1789 114.68 14.5353C113.92 14.8918 113.16 15.169 112.44 15.367C111.56 15.6443 110.72 15.8423 109.88 15.9611C109.44 16.0403 109 16.0403 108.6 16.0403C108.24 16.0403 107.92 16.0007 107.6 15.9611C107 15.8819 106.48 15.6443 106.12 15.3274C105.8 15.0502 105.64 14.6541 105.64 14.0601C105.64 13.3472 105.96 12.6739 106.68 12.0798C107.44 11.4065 108.32 10.7728 109.28 10.2976C110.12 9.9015 111.16 9.42624 112.4 8.95098Z" fill="white"/>
<path d="M124.8 16.9512C120.52 17.3076 116.2 18.5354 112 19.7235C108.84 20.6345 105.56 21.585 102.32 22.0999C101.92 22.1791 101.56 22.2187 101.28 22.2187C101.12 22.2187 101 22.2187 100.88 22.1791C100.48 22.0999 100.32 22.0206 100.28 21.981C100.24 21.9414 100.2 21.9018 100.2 21.8226C100.16 21.5454 99.92 21.3474 99.6 21.3474L99.04 21.387C98.72 21.387 98.48 21.6642 98.48 21.981V24.2385C98.48 24.397 98.56 24.5554 98.68 24.6742C98.8 24.793 98.92 24.8326 99.08 24.8326H99.12C103.56 24.5554 108 23.288 112.32 22.0603C114.92 21.3078 117.6 20.5553 120.24 20.0404C120.8 19.9216 121.36 19.8424 121.92 19.8028C122.44 19.7631 122.92 19.7235 123.4 19.7235C123.64 19.7235 123.84 19.6839 124.12 19.6839C124.36 19.6839 124.6 19.6839 124.88 19.6839C125.04 19.6839 125.16 19.6443 125.28 19.5255C125.4 19.4067 125.48 19.2483 125.48 19.0899V17.5453C125.48 17.3868 125.4 17.2284 125.28 17.1096C125.16 16.9908 125 16.9512 124.8 16.9512Z" fill="white"/>
<path d="M122.12 27.8821C122.04 27.8425 121.92 27.8029 121.8 27.8029C121.68 27.8029 121.6 27.8425 121.52 27.8821C121.24 28.0405 120.92 28.1594 120.52 28.2782L119.36 28.6346C119 28.7138 118.56 28.8326 118.08 28.9119C116.04 29.3475 114 29.8624 112 30.4169C110.48 30.8129 108.88 31.2486 107.28 31.605V25.783C107.28 25.585 107.2 25.4266 107.04 25.3078C106.92 25.2286 106.8 25.189 106.68 25.189C106.64 25.189 106.6 25.189 106.56 25.189C104.8 25.585 103.28 25.8623 101.84 26.0207C101.56 26.0603 101.32 26.2979 101.32 26.6148V27.2088C101.32 27.3673 101.4 27.5257 101.52 27.6445C101.64 27.7237 101.76 27.8029 101.92 27.8029H102C102.32 27.7633 102.56 27.7237 102.8 27.7237C103.04 27.7237 103.28 27.7633 103.44 27.8029C103.72 27.8821 103.88 28.0009 104 28.1198C104.08 28.2386 104.16 28.397 104.16 28.5554V33.8625C104.16 34.0209 104.24 34.219 104.36 34.3378C104.48 34.417 104.6 34.4566 104.72 34.4566H104.84C107.32 33.9813 109.84 33.308 112.28 32.6744C115.44 31.8426 118.68 31.0109 121.84 30.5357C122.12 30.4961 122.36 30.2584 122.36 29.9416V28.3574C122.4 28.199 122.32 28.0009 122.12 27.8821Z" fill="white"/>
<path d="M186.535 16.7964L184.458 22.5811L185.174 22.8331L187.251 17.0485L186.535 16.7964Z" fill="white"/>
<path d="M235.612 16.7877L233.536 22.5723L234.252 22.8243L236.328 17.0397L235.612 16.7877Z" fill="white"/>
<path d="M155.96 21.4664C157 20.4762 157.92 19.4861 158.72 18.496C159.48 17.5455 160.16 16.6345 160.72 15.7632C161.28 14.8919 161.72 14.1394 162.04 13.4661C162.4 12.7928 162.64 12.1591 162.8 11.6839C163 11.169 163.16 10.6145 163.32 10.0601C163.36 9.86204 163.32 9.6244 163.16 9.50559C163.04 9.38677 162.92 9.34717 162.76 9.34717C162.72 9.34717 162.64 9.34717 162.6 9.38677L160.84 9.90164C157.76 10.8126 154.56 11.7235 151.44 12.3176C151.28 12.3572 151.12 12.3572 151 12.3572C150.84 12.3572 150.76 12.3176 150.72 12.3176C150.6 12.2384 150.48 12.1591 150.44 12.0799C150.4 12.0403 150.36 11.9215 150.36 11.6443C150.36 11.4859 150.28 11.3274 150.16 11.2482C150.04 11.169 149.92 11.0898 149.76 11.0898L149.08 11.169C148.76 11.2086 148.52 11.4462 148.52 11.7631V14.2582C148.52 14.4166 148.6 14.5751 148.72 14.6939C148.84 14.7731 148.96 14.8523 149.16 14.8523C149.16 14.8523 149.16 14.8523 149.2 14.8523C152.6 14.4562 156.12 13.5057 159.16 12.6344C158.8 13.5057 158.36 14.377 157.84 15.2484C157.08 16.5157 156.12 17.7831 155.04 18.9712C153.92 20.2386 152.64 21.3872 151.36 22.4169C149.92 23.5259 148.48 24.4368 147 25.0705C146.8 25.1497 146.64 25.3873 146.64 25.6249V26.4963C146.64 26.6943 146.72 26.8923 146.88 26.9715C146.96 27.0507 147.08 27.0903 147.2 27.0903C147.28 27.0903 147.36 27.0903 147.4 27.0507C149.04 26.417 150.64 25.5457 152.2 24.516C153.6 23.5259 154.84 22.5357 155.96 21.4664Z" fill="white"/>
<path d="M175.24 15.3668C175.4 15.3668 175.52 15.3272 175.64 15.2083C175.76 15.0895 175.84 14.9311 175.84 14.7727V13.0697C175.84 12.9112 175.76 12.7528 175.64 12.634C175.52 12.5152 175.4 12.4756 175.2 12.4756C173.76 12.5548 172.28 12.7528 170.68 13.0697V4.91097C170.68 4.75255 170.6 4.55453 170.48 4.47532C170.36 4.39611 170.24 4.31689 170.08 4.31689H170C168.56 4.55453 167 4.87137 165.16 5.30703C164.88 5.38624 164.72 5.62387 164.72 5.8615V6.45558C164.72 6.6536 164.8 6.81203 164.96 6.93084C165.08 7.01005 165.2 7.04966 165.32 7.04966C165.36 7.04966 165.4 7.04966 165.48 7.04966C165.6 7.01005 165.8 6.97045 166.08 6.93084C166.24 6.89124 166.4 6.89124 166.56 6.89124C166.68 6.89124 166.76 6.89124 166.92 6.93084C167.12 6.93084 167.32 7.01005 167.48 7.12887C167.6 7.20808 167.64 7.4061 167.64 7.64374V25.0701C167.64 25.2285 167.72 25.4265 167.84 25.5453C167.96 25.6245 168.08 25.6641 168.2 25.6641H168.28C168.28 25.6641 168.84 25.5453 169.12 25.5057C169.36 25.4661 169.52 25.3077 169.6 25.1097C169.8 24.3572 170 23.5651 170.16 22.7333C170.28 21.9412 170.4 20.9115 170.52 19.6045C170.64 18.456 170.68 17.1094 170.68 15.5252C171.72 15.446 172.68 15.4064 173.64 15.4064C174.16 15.3272 174.68 15.3272 175.24 15.3668Z" fill="white"/>
<path d="M154.4 35.1694C154.52 35.2486 154.64 35.2883 154.76 35.2883C154.8 35.2883 154.84 35.2883 154.88 35.2883C156.96 34.8526 159.04 34.2981 161.12 33.7436C164.44 32.8723 167.88 31.9614 171.24 31.5258C171.52 31.4861 171.76 31.2485 171.76 30.9317V29.3475C171.76 29.1494 171.68 28.9514 171.48 28.8722C171.4 28.793 171.28 28.7534 171.16 28.7534C171.08 28.7534 171 28.7534 170.92 28.793C170.6 28.9118 170.24 29.0306 169.88 29.1494L168.84 29.4663C168.52 29.5455 168.12 29.6247 167.72 29.7435C165.4 30.2188 163.04 30.8129 160.76 31.4465L160.64 31.4861C159.52 31.7634 158.36 32.0802 157.24 32.3575V25.8226C157.24 25.6246 157.16 25.4661 157 25.3473C156.88 25.2681 156.76 25.2285 156.64 25.2285C156.6 25.2285 156.56 25.2285 156.52 25.2285C154.64 25.6642 153.12 25.981 151.64 26.2186C151.36 26.2583 151.12 26.4959 151.12 26.8127V27.4068C151.12 27.5652 151.2 27.7633 151.32 27.8425C151.44 27.9217 151.56 28.0009 151.72 28.0009H151.8C152.16 27.9613 152.48 27.9217 152.76 27.9217C152.96 27.9217 153.16 27.9217 153.28 27.9613C153.56 28.0405 153.8 28.1593 153.88 28.2385C153.96 28.3573 154.04 28.5158 154.08 28.6742V34.7338C154.2 34.8922 154.28 35.0506 154.4 35.1694Z" fill="white"/>
<path d="M204.4 34.6943C205.2 34.9716 206.16 35.13 207.2 35.13H207.36C208.44 35.13 209.64 34.932 210.88 34.6151C212.08 34.2983 213.24 33.8626 214.32 33.3478C215.4 32.8329 216.36 32.2388 217.16 31.6051C218 30.9715 218.64 30.2982 219.12 29.5853C219.64 28.8328 219.92 28.0407 219.92 27.2486C219.92 26.4565 219.64 25.7436 219.08 25.1099C218.56 24.5158 217.84 24.0801 216.96 23.7633C216.12 23.4861 215.12 23.3276 214.04 23.3276H214C212.96 23.3276 211.8 23.4861 210.6 23.8029C209.4 24.1197 208.2 24.5554 207.12 25.1099C206.04 25.6643 205.08 26.2188 204.28 26.8525C203.44 27.5258 202.8 28.1991 202.32 28.912C201.8 29.6645 201.56 30.4566 201.56 31.2091C201.52 32.0408 201.8 32.7933 202.36 33.3874C202.84 33.9418 203.56 34.3775 204.4 34.6943ZM205.12 29.6249C205.44 29.1496 205.88 28.714 206.4 28.2783C206.96 27.803 207.64 27.407 208.4 27.0109C209.16 26.6149 210 26.298 210.92 26.0604C211.8 25.8228 212.6 25.704 213.36 25.704C214.08 25.704 214.76 25.7832 215.32 25.9812C215.8 26.1396 216.2 26.3772 216.48 26.6941C216.72 26.9713 216.84 27.2486 216.84 27.605C216.84 28.0011 216.68 28.3971 216.4 28.7932C216.08 29.2684 215.64 29.7041 215.08 30.1793C214.48 30.6546 213.8 31.0507 213.04 31.4467C212.28 31.8428 211.44 32.1596 210.56 32.3576C209.64 32.5953 208.84 32.7141 208.04 32.7141C207.32 32.7141 206.72 32.6349 206.2 32.4368C205.72 32.2784 205.32 32.0408 205.04 31.724C204.8 31.4467 204.68 31.1695 204.68 30.813C204.68 30.4566 204.84 30.0209 205.12 29.6249Z" fill="white"/>
<path d="M200.72 20.8327C199.32 22.1397 197.76 23.2882 196.12 24.2784C195.96 24.3972 195.84 24.5952 195.84 24.7932V25.6249C195.84 25.823 195.96 26.021 196.12 26.1002C196.2 26.1794 196.32 26.1794 196.44 26.1794C196.52 26.1794 196.6 26.1794 196.68 26.1398C199.04 25.1101 201.28 23.6447 203.24 21.7832C204.8 20.3178 206.2 18.7732 207.4 17.2286C208.84 17.7039 209.92 18.298 210.68 19.0109C211.52 19.8426 212.16 20.5555 212.52 21.2287C212.6 21.3872 212.76 21.4664 212.92 21.506H213.04C213.16 21.506 213.32 21.4664 213.4 21.3872C213.92 20.9515 214.44 20.5555 214.96 20.1594C215.2 19.9614 215.24 19.6049 215.08 19.3673C214.52 18.6148 213.92 17.9415 213.28 17.387C212.64 16.8722 212.04 16.4365 211.4 16.1197C210.76 15.7632 210.16 15.5256 209.56 15.3276C209.32 15.2484 209.08 15.2087 208.84 15.1295C209.44 14.179 209.96 13.2681 210.36 12.4364C210.84 11.4066 211.28 10.5353 211.56 9.82243C211.64 9.62441 211.6 9.34717 211.44 9.18875C211.32 9.06993 211.16 8.99072 211 8.99072C210.96 8.99072 210.88 8.99072 210.84 9.03033L209.88 9.30756C206.92 10.2185 203.84 11.169 200.84 11.8027C200.64 11.8423 200.48 11.8819 200.32 11.8819C200.2 11.8819 200.12 11.8423 200.08 11.8423C199.84 11.7631 199.76 11.6443 199.76 11.6443C199.72 11.5651 199.64 11.4462 199.6 11.169C199.56 10.8918 199.32 10.6541 199 10.6541L198.32 10.7334C198 10.773 197.76 11.0106 197.76 11.3274V13.9414C197.76 14.0998 197.84 14.2582 197.96 14.377C198.08 14.4562 198.2 14.5355 198.36 14.5355H198.44C201.44 14.1394 204.32 13.3473 207.04 12.5156C206.36 13.9414 205.52 15.288 204.52 16.5949C203.24 18.2584 201.92 19.6841 200.72 20.8327Z" fill="white"/>
<path d="M224.4 14.4165C224.56 14.4165 224.68 14.3769 224.8 14.2581C224.92 14.1393 225 13.9808 225 13.8224V12.0798C225 11.9214 224.92 11.763 224.8 11.6441C224.68 11.5253 224.56 11.4857 224.36 11.4857C222.92 11.5649 221.44 11.763 219.84 12.0798V5.06966C219.84 4.91124 219.76 4.71322 219.64 4.63401C219.52 4.5548 219.4 4.47559 219.24 4.47559H219.16C217.72 4.71322 216.2 4.99045 214.36 5.42611C214.08 5.50532 213.92 5.74295 213.92 6.02019V6.61427C213.92 6.8123 214 6.97072 214.16 7.08953C214.28 7.16874 214.4 7.20835 214.52 7.20835C214.56 7.20835 214.6 7.20835 214.68 7.20835C214.8 7.16874 215 7.12914 215.28 7.08953C215.44 7.04993 215.64 7.04993 215.8 7.04993C215.88 7.04993 215.96 7.04993 216.04 7.04993C216.24 7.08953 216.44 7.16874 216.6 7.28756C216.68 7.36677 216.76 7.52519 216.76 7.80243V22.5752C216.76 22.7336 216.84 22.9316 216.96 23.0505C217.08 23.1297 217.2 23.1693 217.32 23.1693H217.44C217.76 23.0901 218.08 23.0505 218.4 23.0108C218.64 22.9712 218.84 22.7732 218.88 22.5356C219.04 21.6247 219.2 20.793 219.32 20.0008C219.44 19.2087 219.52 18.3374 219.64 17.3077C219.72 16.4364 219.8 15.5255 219.84 14.5749C220.88 14.4957 221.84 14.4561 222.8 14.4561C223.32 14.3769 223.84 14.3769 224.4 14.4165Z" fill="white"/>
<path d="M247.52 23.803C247.64 23.9219 247.76 23.9615 247.92 23.9615H247.96C248.28 23.9219 248.6 23.8823 248.96 23.8426C249.2 23.803 249.36 23.6446 249.44 23.4466C249.44 23.407 249.48 23.3278 249.52 23.2486C249.56 23.1298 249.6 23.0505 249.6 23.0109C249.64 22.9317 249.68 22.8525 249.68 22.7733C252.56 22.3773 255.48 21.6644 258.24 20.9515C258.28 21.0703 258.36 21.1891 258.44 21.2683C258.56 21.3475 258.68 21.3871 258.8 21.3871C258.84 21.3871 258.92 21.3871 258.96 21.3871L259.92 21.1495C260.12 21.1099 260.28 20.9515 260.32 20.7534C260.68 19.6445 260.96 18.4563 261.12 17.189C261.28 15.9612 261.36 14.6542 261.36 13.3869V8.19857C261.36 8.00054 261.28 7.84212 261.12 7.72331C261 7.6441 260.88 7.60449 260.76 7.60449C260.72 7.60449 260.68 7.60449 260.6 7.60449L259.16 8.00054C258 8.31739 256.84 8.59462 255.68 8.87186C255.4 8.95107 255.24 9.1887 255.24 9.42633V10.0204C255.24 10.2184 255.32 10.3769 255.48 10.4957C255.6 10.5749 255.72 10.6145 255.84 10.6145C255.88 10.6145 255.92 10.6145 256 10.6145C256.48 10.4957 256.88 10.4165 257.2 10.4165C257.28 10.4165 257.4 10.4165 257.48 10.4165C257.88 10.4957 258.04 10.5749 258.08 10.6145C258.16 10.6937 258.24 10.8125 258.24 10.8917V13.1492C255.6 13.8225 253 14.4958 250.44 14.8919V11.3274C250.44 11.169 250.36 11.0105 250.24 10.8917C250.12 10.8125 250 10.7333 249.84 10.7333H249.76C248.2 10.9709 246.76 11.0898 245.4 11.0898C245.08 11.0898 244.8 11.367 244.8 11.6838V12.2779C244.8 12.4363 244.88 12.5948 244.96 12.7136C245.08 12.8324 245.24 12.872 245.36 12.872H245.44C245.96 12.872 246.36 12.9116 246.56 13.0304C246.8 13.1492 247 13.268 247.08 13.3869C247.16 13.5057 247.24 13.6641 247.24 13.8225V23.3674C247.32 23.5258 247.36 23.6842 247.52 23.803ZM250.28 19.4069C250.32 19.0504 250.36 18.6544 250.4 18.2187C250.44 17.9415 250.44 17.6246 250.44 17.3474C253.08 16.9513 255.76 16.278 258.28 15.6048V18.6148C255.52 19.3276 252.84 20.0009 250.16 20.397C250.16 20.1198 250.24 19.7633 250.28 19.4069Z" fill="white"/>
<path d="M268.6 18.2581C268.72 17.664 268.8 16.8719 268.92 15.8818C269 15.0105 269.08 13.9411 269.12 12.7134C270.16 12.6342 271.12 12.5946 272.08 12.5946C272.6 12.5946 273.12 12.5946 273.68 12.6342C273.84 12.6342 273.96 12.5946 274.08 12.4757C274.2 12.3569 274.28 12.1985 274.28 12.0401V10.2975C274.28 10.139 274.2 9.98061 274.08 9.8618C273.96 9.74298 273.84 9.70338 273.64 9.70338C272.2 9.78259 270.72 9.98061 269.12 10.2975V4.43588C269.12 4.27745 269.04 4.07943 268.92 4.00022C268.8 3.92101 268.68 3.8418 268.52 3.8418H268.44C267 4.07943 265.44 4.39627 263.64 4.79232C263.36 4.87153 263.2 5.10917 263.2 5.3864V5.98048C263.2 6.17851 263.28 6.33693 263.44 6.45574C263.56 6.53495 263.68 6.57456 263.8 6.57456C263.84 6.57456 263.88 6.57456 263.92 6.57456C264.2 6.49535 264.52 6.45574 264.8 6.41614C264.88 6.41614 264.96 6.41614 265.08 6.41614C265.24 6.41614 265.4 6.41614 265.52 6.45574C265.68 6.49535 265.8 6.57456 265.92 6.69338C265.96 6.73298 266.04 6.8518 266.04 7.16864V19.9215C266.04 20.08 266.12 20.278 266.24 20.3572C265.4 20.5156 264.56 20.7136 263.6 20.9513C263.32 21.0305 263.16 21.2681 263.16 21.5057V22.0998C263.16 22.2978 263.24 22.4563 263.4 22.5751C263.52 22.6543 263.64 22.6939 263.76 22.6939C263.8 22.6939 263.84 22.6939 263.88 22.6939C264.24 22.6147 264.56 22.5751 264.84 22.5751C264.96 22.5751 265.08 22.5751 265.16 22.6147C265.4 22.6939 265.56 22.7335 265.64 22.8523C265.72 22.9315 265.8 23.09 265.84 23.2088V24.7534C263.68 25.189 261.44 25.7831 259.32 26.3376L259.36 26.5356L259.2 26.3376C258.04 26.6544 256.8 26.9713 255.64 27.2485V24.3573C255.64 24.1593 255.56 24.0009 255.4 23.8821C255.28 23.8028 255.16 23.7632 255.04 23.7632C255 23.7632 254.96 23.7632 254.92 23.7632C253.24 24.1593 251.76 24.4761 250.44 24.6742C250.16 24.7138 249.92 24.9514 249.92 25.2682V25.8623C249.92 26.0207 250 26.2188 250.12 26.298C250.24 26.3772 250.36 26.4564 250.52 26.4564H250.6C250.84 26.4168 251.08 26.3772 251.28 26.3772C251.48 26.3772 251.68 26.4168 251.8 26.4564C252.04 26.5356 252.2 26.6544 252.32 26.7732C252.44 26.8921 252.52 27.0901 252.56 27.2881V35.1696C252.56 35.3676 252.64 35.526 252.8 35.6448C252.92 35.724 253.04 35.7636 253.16 35.7636C253.2 35.7636 253.24 35.7636 253.28 35.7636C253.72 35.6844 254.16 35.5656 254.56 35.4864C254.76 35.4468 254.92 35.2884 254.96 35.13L255.04 35.0111C255.08 34.9319 255.12 34.8131 255.16 34.7339C255.2 34.6547 255.2 34.5755 255.2 34.4963C256.64 34.1398 258.12 33.7834 259.6 33.3873C261.64 32.8328 263.76 32.2784 265.88 31.8427V31.9615C265.88 32.12 265.96 32.318 266.08 32.4368C266.2 32.516 266.32 32.5556 266.44 32.5556H266.56C266.96 32.4764 267.4 32.3972 267.8 32.318C268.04 32.2784 268.24 32.0803 268.28 31.8823C268.4 31.3675 268.52 30.5357 268.72 29.3476C268.88 28.1594 269 26.4564 269 24.3969V20.5948C269 20.4364 268.92 20.278 268.8 20.1592C268.68 20.08 268.56 20.0007 268.4 20.0007H268.32C268.28 20.0007 268.2 20.0007 268.16 20.0403C268.16 20.0007 268.2 19.9611 268.2 19.9611C268.36 19.4463 268.48 18.8918 268.6 18.2581ZM265.84 29.506C263.64 29.9813 261.44 30.5357 259.28 31.0902C258.04 31.4071 256.76 31.7635 255.52 32.0407C255.56 31.7239 255.56 31.3675 255.6 31.011C255.64 30.4961 255.64 30.0209 255.64 29.5852C256.92 29.2684 258.2 28.9515 259.48 28.5951L259.6 28.5555C261.64 28.001 263.76 27.4861 265.84 27.0109V29.506Z" fill="white"/>
<path d="M137.158 16.7779L135.082 22.5625L135.798 22.8145L137.874 17.0299L137.158 16.7779Z" fill="white"/>
</svg>
