<svg width="24" height="24" viewBox="0 0 24 24" fill="none" xmlns="http://www.w3.org/2000/svg">
<path d="M13.5402 18.0002C13.0669 18.0008 12.6078 17.8383 12.2402 17.5402L7.1402 13.3302C6.94021 13.171 6.7787 12.9687 6.66769 12.7384C6.55667 12.5082 6.49902 12.2558 6.49902 12.0002C6.49902 11.7446 6.55667 11.4922 6.66769 11.2619C6.7787 11.0317 6.94021 10.8294 7.1402 10.6702L12.2402 6.46019C12.5472 6.21419 12.9172 6.05938 13.3079 6.01341C13.6987 5.96744 14.0945 6.03216 14.4502 6.20019C14.7594 6.33647 15.0228 6.55886 15.209 6.84081C15.3952 7.12276 15.4963 7.45234 15.5002 7.79019V16.2102C15.4963 16.548 15.3952 16.8776 15.209 17.1596C15.0228 17.4415 14.7594 17.6639 14.4502 17.8002C14.1643 17.9302 13.8542 17.9983 13.5402 18.0002Z" fill="#231F20"/>
</svg>
