<svg width="20" height="20" viewBox="0 0 20 20" fill="none" xmlns="http://www.w3.org/2000/svg">
<path d="M14.5 18.3334C11.0977 18.329 7.83605 16.9755 5.43029 14.5698C3.02453 12.164 1.67104 8.90234 1.66663 5.50009C1.66663 4.48342 2.07049 3.5084 2.78938 2.78951C3.50827 2.07062 4.4833 1.66675 5.49996 1.66675C5.71524 1.66511 5.93017 1.68465 6.14163 1.72509C6.34605 1.75534 6.54702 1.80558 6.74163 1.87509C6.8785 1.92311 7.00047 2.00603 7.09547 2.11565C7.19047 2.22526 7.25521 2.35778 7.28329 2.50009L8.42496 7.50009C8.45573 7.6358 8.45203 7.77707 8.41418 7.91099C8.37633 8.04491 8.30555 8.16722 8.20829 8.26675C8.09996 8.38342 8.09163 8.39175 7.06663 8.92509C7.88745 10.7258 9.32763 12.1719 11.125 13.0001C11.6666 11.9668 11.675 11.9584 11.7916 11.8501C11.8912 11.7528 12.0135 11.682 12.1474 11.6442C12.2813 11.6064 12.4226 11.6026 12.5583 11.6334L17.5583 12.7751C17.696 12.807 17.8234 12.8735 17.9284 12.9683C18.0333 13.0631 18.1125 13.183 18.1583 13.3168C18.2286 13.5146 18.2816 13.7181 18.3166 13.9251C18.3502 14.1345 18.3669 14.3463 18.3666 14.5584C18.3513 15.5707 17.936 16.5359 17.2116 17.2431C16.4872 17.9504 15.5124 18.3423 14.5 18.3334Z" fill="#231F20"/>
</svg>
