<svg width="24" height="24" viewBox="0 0 24 24" fill="none" xmlns="http://www.w3.org/2000/svg">
<path d="M10.4598 5.99981C10.9331 5.99924 11.3922 6.16168 11.7598 6.45981L16.8598 10.6698C17.0598 10.829 17.2213 11.0313 17.3323 11.2616C17.4433 11.4918 17.501 11.7442 17.501 11.9998C17.501 12.2554 17.4433 12.5078 17.3323 12.7381C17.2213 12.9683 17.0598 13.1706 16.8598 13.3298L11.7598 17.5398C11.4528 17.7858 11.0828 17.9406 10.6921 17.9866C10.3013 18.0326 9.90554 17.9678 9.5498 17.7998C9.24062 17.6635 8.97721 17.4411 8.79102 17.1592C8.60483 16.8772 8.50373 16.5477 8.4998 16.2098L8.4998 7.78981C8.50373 7.45196 8.60483 7.12237 8.79102 6.84043C8.97721 6.55848 9.24062 6.33609 9.5498 6.19981C9.83566 6.06981 10.1458 6.00166 10.4598 5.99981Z" fill="#231F20"/>
</svg>
