<svg width="48" height="48" viewBox="0 0 48 48" fill="none" xmlns="http://www.w3.org/2000/svg">
<rect width="48" height="48" rx="24" fill="white"/>
<path d="M14.6666 25.3334H30.48L25.64 31.1468C25.5279 31.2816 25.4435 31.4371 25.3916 31.6046C25.3396 31.772 25.3212 31.9481 25.3373 32.1227C25.3698 32.4752 25.541 32.8004 25.8133 33.0268C26.0856 33.2531 26.4366 33.362 26.7892 33.3294C27.1418 33.2969 27.467 33.1257 27.6933 32.8534L34.36 24.8534C34.4048 24.7898 34.4449 24.7229 34.48 24.6534C34.48 24.5868 34.5466 24.5468 34.5733 24.4801C34.6337 24.3272 34.6654 24.1645 34.6666 24.0001C34.6654 23.8357 34.6337 23.673 34.5733 23.5201C34.5733 23.4534 34.5066 23.4134 34.48 23.3468C34.4449 23.2772 34.4048 23.2104 34.36 23.1468L27.6933 15.1468C27.568 14.9962 27.411 14.8752 27.2335 14.7922C27.0561 14.7093 26.8625 14.6664 26.6666 14.6668C26.3551 14.6661 26.0532 14.7746 25.8133 14.9734C25.6783 15.0853 25.5667 15.2228 25.4849 15.3779C25.4031 15.5331 25.3527 15.7028 25.3366 15.8775C25.3205 16.0521 25.339 16.2282 25.3911 16.3957C25.4431 16.5631 25.5277 16.7187 25.64 16.8534L30.48 22.6668H14.6666C14.313 22.6668 13.9739 22.8072 13.7238 23.0573C13.4738 23.3073 13.3333 23.6465 13.3333 24.0001C13.3333 24.3537 13.4738 24.6928 13.7238 24.9429C13.9739 25.1929 14.313 25.3334 14.6666 25.3334Z" fill="black"/>
</svg>
