<svg width="22" height="22" viewBox="0 0 22 22" fill="none" xmlns="http://www.w3.org/2000/svg">
<path d="M21 21L15.9376 15.9376M15.9376 15.9376C16.7501 15.1251 17.3947 14.1605 17.8344 13.0988C18.2742 12.0372 18.5005 10.8994 18.5005 9.75025C18.5005 8.60115 18.2742 7.4633 17.8344 6.40167C17.3947 5.34005 16.7501 4.37542 15.9376 3.56289C15.1251 2.75035 14.1605 2.10581 13.0988 1.66607C12.0372 1.22633 10.8994 1 9.75025 1C8.60115 1 7.4633 1.22633 6.40167 1.66607C5.34005 2.10581 4.37543 2.75035 3.56289 3.56289C1.9219 5.20388 1 7.42954 1 9.75025C1 12.071 1.9219 14.2966 3.56289 15.9376C5.20388 17.5786 7.42954 18.5005 9.75025 18.5005C12.071 18.5005 14.2966 17.5786 15.9376 15.9376Z" stroke="white" stroke-width="2" stroke-linecap="round" stroke-linejoin="round"/>
</svg>
