<svg width="30" height="31" viewBox="0 0 30 31" fill="none" xmlns="http://www.w3.org/2000/svg">
<g clip-path="url(#clip0_133_2124)">
<path d="M14.5 0.5C16.4891 0.5 18.3968 1.29018 19.8033 2.6967C21.2098 4.10322 22 6.01088 22 8C22 9.98912 21.2098 11.8968 19.8033 13.3033C18.3968 14.7098 16.4891 15.5 14.5 15.5C12.5109 15.5 10.6032 14.7098 9.1967 13.3033C7.79018 11.8968 7 9.98912 7 8C7 6.01088 7.79018 4.10322 9.1967 2.6967C10.6032 1.29018 12.5109 0.5 14.5 0.5ZM14.5 19.25C22.7875 19.25 29.5 22.6063 29.5 26.75V30.5H-0.5V26.75C-0.5 22.6063 6.2125 19.25 14.5 19.25Z" fill="black"/>
</g>
<defs>
<clipPath id="clip0_133_2124">
<rect width="30" height="30" fill="white" transform="translate(0 0.5)"/>
</clipPath>
</defs>
</svg>
