<svg width="26" height="26" viewBox="0 0 26 26" fill="none" xmlns="http://www.w3.org/2000/svg">
<g clip-path="url(#clip0_21_123)">
<path d="M25.0806 7.09603L22.4467 2.89148C22.2113 2.51405 21.7933 2.28271 21.3469 2.28271H4.95076C4.50433 2.28271 4.08631 2.51405 3.85092 2.89148L1.21699 7.09603C-0.142588 9.26729 1.06277 12.2868 3.60335 12.6317C3.78598 12.6561 3.97267 12.6683 4.15936 12.6683C5.36066 12.6683 6.42397 12.1407 7.15449 11.3249C7.88501 12.1407 8.95238 12.6683 10.1496 12.6683C11.3509 12.6683 12.4142 12.1407 13.1447 11.3249C13.8753 12.1407 14.9426 12.6683 16.1399 12.6683C17.3412 12.6683 18.4045 12.1407 19.135 11.3249C19.8696 12.1407 20.9329 12.6683 22.1301 12.6683C22.3209 12.6683 22.5035 12.6561 22.6861 12.6317C25.2348 12.2908 26.4443 9.27135 25.0806 7.09603ZM22.1383 13.971C21.7324 13.971 21.3306 13.9102 20.941 13.8168V17.8671H5.3566V13.8168C4.96699 13.9061 4.5652 13.971 4.15936 13.971C3.91585 13.971 3.66829 13.9548 3.42884 13.9223C3.20157 13.8899 2.97835 13.8371 2.76326 13.7762V21.7632C2.76326 22.4816 3.34361 23.0619 4.06196 23.0619H22.2438C22.9621 23.0619 23.5425 22.4816 23.5425 21.7632V13.7762C23.3233 13.8412 23.1042 13.8939 22.8769 13.9223C22.6293 13.9548 22.3858 13.971 22.1383 13.971Z" fill="#3A4C22"/>
</g>
<defs>
<clipPath id="clip0_21_123">
<rect width="25" height="25" fill="white" transform="translate(0.648804 0.172363)"/>
</clipPath>
</defs>
</svg>
