<svg width="25" height="26" viewBox="0 0 25 26" fill="none" xmlns="http://www.w3.org/2000/svg">
<g clip-path="url(#clip0_54_91)">
<path d="M12.1688 8.32379L4.16668 14.9145V22.0278C4.16668 22.212 4.23984 22.3886 4.37007 22.5188C4.50031 22.6491 4.67694 22.7222 4.86112 22.7222L9.72484 22.7096C9.90841 22.7087 10.0842 22.6351 10.2136 22.505C10.3431 22.3749 10.4158 22.1988 10.4158 22.0152V17.8611C10.4158 17.6769 10.489 17.5003 10.6192 17.3701C10.7494 17.2398 10.9261 17.1667 11.1103 17.1667H13.888C14.0722 17.1667 14.2488 17.2398 14.3791 17.3701C14.5093 17.5003 14.5825 17.6769 14.5825 17.8611V22.0122C14.5822 22.1035 14.5999 22.1941 14.6347 22.2786C14.6695 22.3631 14.7206 22.4399 14.7851 22.5046C14.8496 22.5693 14.9263 22.6207 15.0107 22.6557C15.0951 22.6907 15.1855 22.7088 15.2769 22.7088L20.1389 22.7222C20.3231 22.7222 20.4997 22.6491 20.6299 22.5188C20.7602 22.3886 20.8333 22.212 20.8333 22.0278V14.9097L12.8329 8.32379C12.7389 8.24797 12.6217 8.20663 12.5009 8.20663C12.3801 8.20663 12.2629 8.24797 12.1688 8.32379ZM24.809 12.8034L21.1806 9.8125V3.80078C21.1806 3.66265 21.1257 3.53017 21.028 3.4325C20.9303 3.33482 20.7979 3.27995 20.6597 3.27995H18.2292C18.091 3.27995 17.9586 3.33482 17.8609 3.4325C17.7632 3.53017 17.7083 3.66265 17.7083 3.80078V6.95226L13.8225 3.75521C13.4496 3.44834 12.9816 3.28056 12.4987 3.28056C12.0158 3.28056 11.5478 3.44834 11.1749 3.75521L0.188378 12.8034C0.135638 12.847 0.092004 12.9005 0.0599693 12.961C0.0279346 13.0215 0.00812682 13.0876 0.00167777 13.1558C-0.00477127 13.2239 0.0022648 13.2926 0.022384 13.358C0.0425031 13.4234 0.0753111 13.4842 0.118933 13.5369L1.2257 14.8824C1.26921 14.9353 1.32272 14.9791 1.38317 15.0113C1.44362 15.0435 1.50983 15.0634 1.578 15.07C1.64617 15.0766 1.71497 15.0696 1.78046 15.0496C1.84595 15.0295 1.90684 14.9967 1.95965 14.9531L12.1688 6.54427C12.2629 6.46846 12.3801 6.42712 12.5009 6.42712C12.6217 6.42712 12.7389 6.46846 12.8329 6.54427L23.0425 14.9531C23.0953 14.9967 23.1561 15.0296 23.2214 15.0497C23.2868 15.0698 23.3556 15.0768 23.4237 15.0704C23.4918 15.0639 23.558 15.0441 23.6184 15.0121C23.6789 14.9801 23.7325 14.9364 23.7761 14.8837L24.8828 13.5382C24.9264 13.4852 24.9591 13.4241 24.979 13.3584C24.9988 13.2927 25.0055 13.2237 24.9987 13.1555C24.9918 13.0872 24.9715 13.0209 24.939 12.9605C24.9064 12.9001 24.8623 12.8467 24.809 12.8034Z" fill="#3E352F"/>
</g>
<defs>
<clipPath id="clip0_54_91">
<rect width="25" height="25" fill="white" transform="translate(0 0.5)"/>
</clipPath>
</defs>
</svg>
