<svg width="24" height="24" viewBox="0 0 24 24" fill="none" xmlns="http://www.w3.org/2000/svg">
<path d="M12.0002 15.4999C11.8686 15.5007 11.7381 15.4755 11.6163 15.4257C11.4944 15.3759 11.3836 15.3026 11.2902 15.2099L7.29019 11.2099C7.19695 11.1167 7.12299 11.006 7.07253 10.8842C7.02207 10.7624 6.99609 10.6318 6.99609 10.4999C6.99609 10.3681 7.02207 10.2375 7.07253 10.1157C7.12299 9.99387 7.19695 9.88318 7.29019 9.78994C7.38342 9.6967 7.49411 9.62274 7.61594 9.57228C7.73776 9.52182 7.86833 9.49585 8.00019 9.49585C8.13204 9.49585 8.26261 9.52182 8.38444 9.57228C8.50626 9.62274 8.61695 9.6967 8.71019 9.78994L12.0002 13.0999L15.3002 9.91994C15.3922 9.81765 15.5043 9.73544 15.6295 9.67846C15.7547 9.62147 15.8903 9.59093 16.0279 9.58875C16.1654 9.58657 16.302 9.6128 16.4289 9.66579C16.5559 9.71878 16.6705 9.7974 16.7657 9.89672C16.8609 9.99605 16.9346 10.1139 16.9821 10.243C17.0297 10.3721 17.0501 10.5096 17.042 10.647C17.034 10.7843 16.9977 10.9185 16.9355 11.0412C16.8732 11.1639 16.7863 11.2724 16.6802 11.3599L12.6802 15.2199C12.4973 15.3963 12.2542 15.4964 12.0002 15.4999Z" fill="white"/>
</svg>
