<svg width="32" height="32" viewBox="0 0 32 32" fill="none" xmlns="http://www.w3.org/2000/svg">
<path d="M6.66668 17.3332H22.48L17.64 23.1465C17.5279 23.2813 17.4435 23.4369 17.3916 23.6044C17.3397 23.7718 17.3212 23.9478 17.3373 24.1224C17.3698 24.475 17.5411 24.8002 17.8133 25.0265C18.0856 25.2528 18.4367 25.3617 18.7892 25.3292C19.1418 25.2967 19.467 25.1255 19.6933 24.8532L26.36 16.8532C26.4049 16.7895 26.445 16.7227 26.48 16.6532C26.48 16.5865 26.5467 16.5465 26.5733 16.4798C26.6338 16.327 26.6654 16.1642 26.6667 15.9998C26.6654 15.8355 26.6338 15.6727 26.5733 15.5198C26.5733 15.4532 26.5067 15.4132 26.48 15.3465C26.445 15.277 26.4049 15.2101 26.36 15.1465L19.6933 7.14651C19.568 6.996 19.411 6.87496 19.2335 6.79199C19.0561 6.70903 18.8626 6.66619 18.6667 6.66651C18.3551 6.6659 18.0532 6.7744 17.8133 6.97317C17.6783 7.08511 17.5667 7.22257 17.4849 7.3777C17.4031 7.53283 17.3527 7.70258 17.3366 7.87721C17.3205 8.05185 17.339 8.22794 17.3911 8.39542C17.4432 8.56289 17.5277 8.71844 17.64 8.85317L22.48 14.6665H6.66668C6.31305 14.6665 5.97392 14.807 5.72387 15.057C5.47382 15.3071 5.33334 15.6462 5.33334 15.9998C5.33334 16.3535 5.47382 16.6926 5.72387 16.9426C5.97392 17.1927 6.31305 17.3332 6.66668 17.3332Z" fill="black"/>
</svg>
