<svg width="30" height="31" viewBox="0 0 30 31" fill="none" xmlns="http://www.w3.org/2000/svg">
<g clip-path="url(#clip0_133_2126)">
<path d="M15 0.5C6.83654 0.5 0 6.36154 0 13.7692C0 17.2654 1.56808 20.4015 4.03846 22.7473C3.73748 23.532 3.31117 24.2626 2.77615 24.9108C2.06639 25.7718 1.28221 26.5688 0.432692 27.2923C0.246365 27.4418 0.111027 27.6454 0.0453565 27.8751C-0.0203142 28.1048 -0.0130803 28.3492 0.0660598 28.5746C0.1452 28.8 0.292345 28.9952 0.487187 29.1334C0.68203 29.2716 0.914965 29.346 1.15385 29.3462C3.70962 29.3462 5.54769 29.3173 7.21154 28.8777C8.7 28.4831 9.97962 27.6569 11.2858 26.4973C12.4742 26.7823 13.7008 27.0385 15 27.0385C23.1635 27.0385 30 21.1769 30 13.7692C30 6.36154 23.1635 0.5 15 0.5ZM15 2.80769C22.0673 2.80769 27.6923 7.79231 27.6923 13.7692C27.6923 19.7462 22.0673 24.7308 15 24.7308C13.7435 24.7308 12.4385 24.5138 11.25 24.1896C11.0599 24.1418 10.8609 24.1432 10.6715 24.1937C10.4821 24.2442 10.3088 24.342 10.1677 24.4781C8.86962 25.7231 7.91308 26.3035 6.63462 26.6415C6.04615 26.7973 4.91077 26.7604 4.11 26.8227C4.27154 26.6404 4.42269 26.5435 4.57962 26.3531C5.48654 25.2454 6.31385 24.0742 6.56308 22.7473C6.59741 22.5481 6.57881 22.3434 6.50915 22.1537C6.43949 21.9639 6.32121 21.7958 6.16615 21.6662C3.74885 19.67 2.30769 16.8719 2.30769 13.7692C2.30769 7.79231 7.93269 2.80769 15 2.80769ZM12.8008 7.31462C12.5977 7.3602 12.4107 7.45987 12.2596 7.60308L10.5288 9.22654L12.0796 10.9204L13.4492 9.62231H16.2254L17.3077 10.85V12.545L14.3504 14.5273C14.1923 14.635 14.0635 14.7802 13.9755 14.95C13.8874 15.1198 13.843 15.3088 13.8462 15.5V17.8077H16.1538V16.1485L19.1112 14.1662C19.2694 14.0584 19.3983 13.913 19.4864 13.743C19.5744 13.573 19.6187 13.3837 19.6154 13.1923V10.4162C19.6139 10.1373 19.5114 9.86839 19.3269 9.65923L17.5962 7.71154C17.4885 7.58762 17.3555 7.48811 17.2063 7.41966C17.0571 7.35121 16.895 7.3154 16.7308 7.31462H13.0523C12.9687 7.30545 12.8844 7.30545 12.8008 7.31462ZM13.8462 18.9615V21.2692H16.1538V18.9615H13.8462Z" fill="black"/>
</g>
<defs>
<clipPath id="clip0_133_2126">
<rect width="30" height="30" fill="white" transform="translate(0 0.5)"/>
</clipPath>
</defs>
</svg>
