<svg width="24" height="24" viewBox="0 0 24 24" fill="none" xmlns="http://www.w3.org/2000/svg">
<path d="M10.1701 5C10.3195 4.99949 10.4671 5.03246 10.6021 5.09649C10.737 5.16052 10.856 5.25398 10.9501 5.37L15.7801 11.37C15.9272 11.5489 16.0076 11.7734 16.0076 12.005C16.0076 12.2366 15.9272 12.4611 15.7801 12.64L10.7801 18.64C10.6103 18.8442 10.3664 18.9726 10.102 18.997C9.83758 19.0214 9.5743 18.9397 9.37008 18.77C9.16586 18.6003 9.03744 18.3563 9.01306 18.0919C8.98868 17.8275 9.07034 17.5642 9.24008 17.36L13.7101 12L9.39008 6.64C9.2678 6.49321 9.19012 6.31447 9.16624 6.12493C9.14236 5.93538 9.17328 5.74295 9.25533 5.57043C9.33739 5.3979 9.46715 5.25249 9.62926 5.1514C9.79137 5.05031 9.97905 4.99777 10.1701 5Z" fill="black"/>
</svg>
