<svg width="48" height="48" viewBox="0 0 48 48" fill="none" xmlns="http://www.w3.org/2000/svg">
<rect x="48" y="48" width="48" height="48" rx="24" transform="rotate(-180 48 48)" fill="white"/>
<path d="M33.3333 22.6666H17.52L22.36 16.8532C22.472 16.7184 22.5564 16.5629 22.6084 16.3954C22.6603 16.228 22.6787 16.0519 22.6627 15.8773C22.6301 15.5248 22.4589 15.1996 22.1866 14.9732C21.9143 14.7469 21.5633 14.638 21.2107 14.6706C20.8582 14.7031 20.5329 14.8743 20.3066 15.1466L13.64 23.1466C13.5951 23.2102 13.555 23.2771 13.52 23.3466C13.52 23.4132 13.4533 23.4532 13.4266 23.5199C13.3662 23.6728 13.3345 23.8355 13.3333 23.9999C13.3345 24.1643 13.3662 24.327 13.4266 24.4799C13.4266 24.5466 13.4933 24.5866 13.52 24.6532C13.555 24.7228 13.5951 24.7896 13.64 24.8532L20.3066 32.8532C20.432 33.0038 20.589 33.1248 20.7664 33.2078C20.9439 33.2907 21.1374 33.3336 21.3333 33.3332C21.6448 33.3339 21.9467 33.2254 22.1866 33.0266C22.3216 32.9147 22.4332 32.7772 22.515 32.6221C22.5968 32.4669 22.6472 32.2972 22.6633 32.1225C22.6794 31.9479 22.6609 31.7718 22.6089 31.6043C22.5568 31.4369 22.4722 31.2813 22.36 31.1466L17.52 25.3332H33.3333C33.6869 25.3332 34.0261 25.1928 34.2761 24.9427C34.5261 24.6927 34.6666 24.3535 34.6666 23.9999C34.6666 23.6463 34.5261 23.3072 34.2761 23.0571C34.0261 22.8071 33.6869 22.6666 33.3333 22.6666Z" fill="black"/>
</svg>
