<svg width="136" height="32" viewBox="0 0 136 32" fill="none" xmlns="http://www.w3.org/2000/svg">
<path fill-rule="evenodd" clip-rule="evenodd" d="M13.0371 17.0668V26.6668H17.5145V17.2002H20.5433L21.3334 13.2002H17.5145C17.5145 13.2002 17.5145 11.3335 17.5145 10.2668C17.5145 9.86683 17.6462 9.3335 18.3046 9.3335C19.2264 9.3335 20.4116 9.3335 20.4116 9.3335V5.3335C20.4116 5.3335 18.4363 5.3335 16.3293 5.3335C15.0124 5.3335 13.0371 7.06683 13.0371 9.06683C13.0371 11.0668 13.0371 13.2002 13.0371 13.2002H10.6667V17.2002L13.0371 17.0668Z" fill="white"/>
<path d="M68.0001 11.7778C65.7178 11.7778 63.7778 13.7178 63.7778 16.0001C63.7778 18.2823 65.7178 20.2223 68.0001 20.2223C70.2823 20.2223 72.2223 18.2823 72.2223 16.0001C72.2223 13.7178 70.2823 11.7778 68.0001 11.7778Z" fill="white"/>
<path d="M73.4122 3.3335H62.7031C58.5576 3.3335 55.3334 6.55774 55.3334 10.588V21.2971C55.3334 25.4426 58.5576 28.6668 62.7031 28.6668H73.4122C77.4425 28.6668 80.6667 25.4426 80.6667 21.2971V10.588C80.6667 6.55774 77.4425 3.3335 73.4122 3.3335ZM68 22.6789C64.3152 22.6789 61.4364 19.685 61.4364 16.1153C61.4364 12.5456 64.3152 9.43653 68 9.43653C71.6849 9.43653 74.5637 12.4305 74.5637 16.0002C74.5637 19.5699 71.6849 22.6789 68 22.6789ZM74.794 10.8183C73.9879 10.8183 73.297 10.1274 73.297 9.32137C73.297 8.51531 73.9879 7.82441 74.794 7.82441C75.6 7.82441 76.291 8.51531 76.291 9.32137C76.291 10.1274 75.6 10.8183 74.794 10.8183Z" fill="white"/>
<path d="M111.69 13.1909C111.371 13.1909 111.087 13.3169 110.873 13.5507C110.643 13.7846 110.536 14.0725 110.536 14.4143C110.536 14.7561 110.643 15.026 110.873 15.2779C111.104 15.5118 111.371 15.6377 111.69 15.6377C112.01 15.6377 112.294 15.5118 112.525 15.2779C112.756 15.044 112.88 14.7561 112.88 14.4143C112.88 14.0725 112.756 13.7846 112.525 13.5507C112.294 13.2989 112.028 13.1909 111.69 13.1909Z" fill="white"/>
<path d="M121.651 13.1724C121.332 13.1724 121.048 13.2983 120.835 13.5322C120.604 13.7661 120.497 14.0539 120.497 14.3958C120.497 14.7376 120.604 15.0074 120.835 15.2593C121.065 15.4932 121.332 15.6191 121.651 15.6191C121.971 15.6191 122.255 15.4932 122.486 15.2593C122.717 15.0254 122.841 14.7376 122.841 14.3958C122.841 14.0539 122.717 13.7841 122.486 13.5322C122.273 13.2803 121.989 13.1724 121.651 13.1724Z" fill="white"/>
<path d="M128.31 13.1909C127.99 13.1909 127.706 13.3169 127.493 13.5507C127.262 13.7846 127.156 14.0725 127.156 14.4143C127.156 14.7561 127.262 15.026 127.493 15.2779C127.724 15.5118 127.99 15.6377 128.31 15.6377C128.629 15.6377 128.913 15.5118 129.144 15.2779C129.375 15.044 129.499 14.7561 129.499 14.4143C129.499 14.0725 129.375 13.7846 129.144 13.5507C128.913 13.2989 128.629 13.1909 128.31 13.1909Z" fill="white"/>
<path d="M131.257 4.30322H108.743C107.02 4.30322 105.6 5.7425 105.6 7.48763V20.3872C105.6 22.1323 107.02 23.5716 108.743 23.5716H117.585C117.585 23.5716 119.29 28.3032 119.911 28.3032C120.533 28.3032 122.379 23.5716 122.379 23.5716H131.257C132.98 23.5716 134.4 22.1323 134.4 20.3872V7.48763C134.4 5.7425 132.98 4.30322 131.257 4.30322ZM113.963 16.2133C113.519 16.717 112.827 16.9329 112.081 16.9329C111.406 16.9329 110.909 16.735 110.554 16.4472H110.536V16.807H108.849V9.3407H110.536V12.2013H110.572C111.033 11.8055 111.637 11.6795 112.347 11.6436C112.951 11.6256 113.59 12.0034 113.981 12.4531C114.354 12.9029 114.638 13.6046 114.638 14.3782C114.638 15.2238 114.425 15.7095 113.963 16.2133ZM117.603 16.8789H115.881C115.881 16.8789 115.881 12.9569 115.881 12.2552C115.881 11.1938 115.046 11.0498 115.046 11.0498V9.19678C115.046 9.19678 117.461 9.3407 117.603 12.3092C117.603 13.1548 117.603 16.8789 117.603 16.8789ZM124.368 15.4576C124.226 15.7995 124.013 16.0873 123.729 16.3572C123.462 16.6091 123.143 16.807 122.788 16.9509C122.433 17.0948 122.06 17.1668 121.669 17.1668C121.278 17.1668 120.906 17.0948 120.568 16.9509C120.213 16.807 119.893 16.6091 119.627 16.3572C119.343 16.0873 119.13 15.7815 118.988 15.4576C118.846 15.1338 118.775 14.774 118.775 14.3962C118.775 14.0184 118.846 13.6765 118.988 13.3347C119.13 13.0109 119.343 12.705 119.627 12.4352C119.911 12.1833 120.213 11.9854 120.568 11.8415C120.923 11.6975 121.296 11.6256 121.669 11.6256C122.06 11.6256 122.433 11.6975 122.788 11.8415C123.143 11.9854 123.462 12.1833 123.729 12.4352C124.013 12.705 124.208 12.9929 124.368 13.3347C124.51 13.6765 124.581 14.0184 124.581 14.3962C124.581 14.774 124.51 15.1158 124.368 15.4576ZM131.151 16.1953C131.151 17.5086 130.902 18.3002 130.334 18.8579C129.641 19.5236 128.665 19.5596 127.848 19.4516V18.1023C128.541 18.1743 129.482 17.7065 129.482 16.807V16.4651H129.464C129.073 17.0049 128.523 17.2028 127.759 17.2028C127.067 17.2028 126.463 16.9509 126.055 16.4651C125.646 15.9794 125.451 15.3317 125.451 14.5221C125.451 13.6046 125.682 12.8849 126.126 12.3452C126.587 11.8055 127.227 11.5536 127.972 11.5536C128.629 11.5536 129.055 11.7155 129.464 12.0933H129.482V11.6795H131.168V16.1953H131.151Z" fill="white"/>
</svg>
