<svg width="586" height="123" viewBox="0 0 586 123" fill="none" xmlns="http://www.w3.org/2000/svg">
<path d="M107.178 65.8597L110.097 57.6598L109.106 57.3086L106.188 65.5085L107.178 65.8597Z" fill="#3E352F"/>
<path d="M414.383 65.8675L417.301 57.6676L416.312 57.3168L413.394 65.5167L414.383 65.8675Z" fill="#3E352F"/>
<path d="M483.549 65.8757L486.468 57.6758L485.479 57.3247L482.56 65.5246L483.549 65.8757Z" fill="#3E352F"/>
<path d="M61.2234 59.6932C60.625 60.7709 60.3233 62.0063 60.3267 63.3903C60.4998 65.6211 61.5545 67.3953 63.3784 68.5203C64.5554 69.2443 65.927 69.6115 67.4531 69.6115C68.2895 69.6115 69.1834 69.5011 70.1061 69.2849C70.9954 69.085 71.9367 68.7235 72.9039 68.2078C73.8706 67.6937 74.7724 67.0445 75.5851 66.2742C76.4294 65.4702 77.1388 64.5473 77.6932 63.5321C78.2657 62.4849 78.5905 61.3064 78.6582 60.0147C78.6582 58.0835 77.8094 56.642 76.1327 55.7305C75.2456 55.2479 74.1746 55.0041 72.9513 55.0041C72.3597 55.0041 71.7179 55.0615 71.0332 55.1742C71.8143 54.6888 72.7161 54.1669 73.7527 53.6044C74.121 53.4163 74.8339 53.119 75.8987 52.7046C76.347 52.588 76.8162 52.4715 77.3086 52.3544C77.7784 52.2429 78.2132 52.1596 78.6593 52.0993C79.0456 52.0233 79.5228 51.9377 80.0896 51.8431C80.4967 51.7756 80.7917 51.4276 80.7917 51.0154V48.967C80.7917 48.6968 80.6609 48.4423 80.4409 48.2846C80.2988 48.1833 80.1251 48.1281 79.9514 48.1281C79.86 48.1281 79.7698 48.1422 79.6812 48.172L78.6086 48.5357C78.2814 48.6484 77.96 48.7458 77.5917 48.8454L76.5241 49.2097C76.1942 49.3223 75.8586 49.4226 75.465 49.5267L74.2885 49.9152C73.8977 50.0436 72.2864 50.5565 71.8922 50.6782C71.8634 50.6877 71.8346 50.6962 71.8064 50.7046V47.132C71.8064 46.8742 71.6903 46.6337 71.4889 46.4755C71.3412 46.3573 71.1556 46.2931 70.9661 46.2931C70.9001 46.2931 70.8364 46.3004 70.7744 46.3145C69.0627 46.7154 67.5197 47.0346 66.0556 47.2931C65.6523 47.3635 65.3608 47.712 65.3608 48.1196V48.8567C65.3608 49.1056 65.4702 49.3398 65.6614 49.4991C65.8125 49.6264 66.0042 49.6962 66.2011 49.6962L66.3483 49.6832C66.5474 49.6478 66.725 49.6286 66.8818 49.6286C67.0724 49.6286 67.1593 49.6607 67.1801 49.6686C67.3584 49.7463 67.4283 49.8139 67.4644 49.8702C67.5095 49.9344 67.5665 50.0819 67.5845 50.2739V51.6979C65.6365 52.1494 63.8679 52.4839 62.1884 52.7198C61.731 52.78 61.3182 52.8121 60.9606 52.8121C60.6459 52.8121 60.3825 52.7874 60.1772 52.7406C59.6234 52.6094 59.4193 52.4715 59.4023 52.4597C59.364 52.4265 59.3352 52.3335 59.3245 52.2131C59.289 51.7818 58.9207 51.4439 58.4656 51.4439C58.4656 51.4439 57.9411 51.4524 57.7161 51.4524C57.253 51.4524 56.8757 51.8279 56.8757 52.2913V55.5266C56.8757 55.749 56.9665 55.9658 57.125 56.1229C57.2835 56.28 57.4933 56.3662 57.7256 56.3662C58.8615 56.3532 60.0464 56.2879 61.2516 56.1741C62.3717 56.0576 63.5199 55.8977 64.7325 55.6899C64.2446 56.0773 63.7805 56.4911 63.3462 56.9275C62.4991 57.7496 61.7851 58.6809 61.2234 59.6932ZM66.0708 59.4033C67.0222 58.2845 68.0769 57.2794 69.2048 56.4151C69.2257 56.3988 69.2465 56.3836 69.268 56.3673L69.308 57.3487C69.3182 57.5812 69.4236 57.8002 69.6013 57.9506C69.7491 58.0778 69.9357 58.1499 70.2126 58.1499C70.2222 58.1499 70.2312 58.1488 70.2414 58.1488C70.727 58.0953 71.1759 58.0677 71.5741 58.0677C72.6282 58.0677 73.3653 58.2625 73.7065 58.6308C74.2451 59.2118 74.4842 59.9066 74.4374 60.7501C74.3596 61.9252 73.8915 63.0288 73.0466 64.0305C72.1719 65.0631 71.014 65.808 69.6205 66.2393C69.22 66.3429 68.827 66.3947 68.4502 66.3947C68.2212 66.3947 67.994 66.3756 67.7706 66.3373C67.1779 66.2376 66.6399 66.0349 66.1791 65.7399C65.7183 65.4229 65.3472 65.0135 65.0788 64.5203C64.821 64.0524 64.7032 63.4865 64.728 62.8351C64.7522 61.5586 65.1927 60.4359 66.0708 59.4033Z" fill="#3E352F"/>
<path d="M71.6621 82.6023C72.7602 82.9531 74.0314 83.131 75.439 83.131H75.4402L75.8389 83.1265C77.3458 83.0944 79.0135 82.8427 80.7963 82.3799C82.482 81.9435 84.1124 81.3563 85.6402 80.6367C87.1602 79.9227 88.5154 79.1288 89.6699 78.2735C90.8514 77.3788 91.7639 76.4566 92.461 75.4538C93.2082 74.3806 93.5867 73.2674 93.5867 72.1469C93.5878 71.0045 93.1879 69.9775 92.3989 69.0935C91.6505 68.2545 90.6602 67.5873 89.4443 67.1081C88.2306 66.6757 86.837 66.4392 85.299 66.4043L84.9618 66.4004C83.5377 66.4004 81.9936 66.6132 80.3744 67.0344C78.6571 67.4792 77.0035 68.107 75.4593 68.9009C73.9496 69.6746 72.6113 70.5349 71.4867 71.4572C70.3289 72.375 69.3915 73.3659 68.7012 74.4014C67.9596 75.5112 67.5845 76.6058 67.5851 77.6463C67.5473 78.8287 67.9235 79.8715 68.7063 80.7453C69.444 81.5674 70.4371 82.1918 71.6621 82.6023ZM72.6282 75.3929C73.0579 74.7201 73.671 74.0613 74.4543 73.4324C75.2462 72.7702 76.1948 72.152 77.2731 71.5934C78.3678 71.0287 79.5532 70.5788 80.7968 70.2573C81.9665 69.9538 83.0691 69.7996 84.0735 69.7996L84.2258 69.8007C85.2545 69.817 86.1822 69.9679 86.9848 70.2506C87.6852 70.4904 88.2458 70.8384 88.6513 71.2855C89.0094 71.6841 89.1843 72.121 89.1843 72.6221C89.1843 73.1621 88.9858 73.7134 88.5808 74.3074C88.1381 74.956 87.5375 75.5624 86.7456 76.1632C85.9217 76.7933 84.9556 77.3749 83.8761 77.8912C82.7877 78.412 81.6101 78.8383 80.3744 79.1587C79.0942 79.4909 77.9149 79.671 76.8721 79.6952L76.5907 79.6986C75.6703 79.6986 74.8531 79.5838 74.1532 79.3557C73.46 79.1519 72.9169 78.84 72.5374 78.4289C72.1939 78.0562 72.0338 77.6485 72.0338 77.1435C72.0332 76.5996 72.2334 76.0117 72.6282 75.3929Z" fill="#3E352F"/>
<path d="M94.2679 53.4354V40.8613C94.2679 40.6237 94.167 40.3951 93.9899 40.2374C93.8399 40.1023 93.6476 40.0269 93.3656 40.0269C93.3566 40.0269 93.3481 40.0269 93.3391 40.0274C91.3223 40.2408 89.1871 40.5871 86.8116 41.086C86.4247 41.1682 86.1439 41.5133 86.1439 41.908V42.7261C86.1439 42.9801 86.2567 43.2171 86.4546 43.3776C86.6046 43.4987 86.793 43.5651 86.9842 43.5651C87.0412 43.5651 87.0975 43.5589 87.1573 43.5482C87.7568 43.4215 88.2678 43.3585 88.6739 43.3585L88.7489 43.3562C89.076 43.3939 89.3755 43.5009 89.6642 43.6822C89.8295 43.7869 89.8639 44.0938 89.8644 44.3337V51.3195C88.6197 51.5284 87.3226 51.7818 85.9177 52.0903V43.9654C85.9177 43.707 85.8027 43.4682 85.6002 43.3078C85.4507 43.1907 85.2657 43.1265 85.0774 43.1265C85.0125 43.1265 84.9482 43.1338 84.889 43.1479C82.6918 43.6535 80.5103 44.2233 78.2832 44.8106C77.9149 44.9069 77.6577 45.2413 77.6577 45.6219V46.4412C77.6577 46.6934 77.7688 46.9288 77.964 47.0887C78.1145 47.2126 78.3046 47.2801 78.498 47.2801L78.6588 47.2661C79.2368 47.1534 79.7224 47.096 80.1025 47.096C80.1871 47.096 80.2672 47.0994 80.3828 47.1078C80.7387 47.1168 81.0664 47.1968 81.3568 47.3454C81.4121 47.3742 81.5147 47.4265 81.5147 47.7756V65.6335C81.5147 65.8947 81.6321 66.1357 81.8379 66.2956C81.9845 66.4099 82.1684 66.4724 82.3551 66.4724C82.4233 66.4724 82.491 66.464 82.5587 66.4477L83.9156 66.1115C84.2303 66.0355 84.4745 65.7816 84.5394 65.4662C85.2522 61.9995 85.678 58.6386 85.8049 55.4743C87.2645 55.1455 88.5983 54.8774 89.8638 54.6607V65.7545C89.8638 66.0006 89.9704 66.2331 90.1577 66.3919C90.31 66.5214 90.5034 66.5935 90.7042 66.5935L90.8356 66.5828C91.2811 66.5124 91.7272 66.4477 92.1756 66.3891C92.5038 66.3452 92.7768 66.1126 92.8704 65.7968C93.1501 64.8627 93.387 63.861 93.5759 62.8131C93.7276 61.834 93.8827 60.553 94.0356 59.008C94.1907 57.45 94.2679 55.5751 94.2679 53.4354Z" fill="#3E352F"/>
<path d="M172.896 65.8525L175.814 57.6531L174.824 57.3019L171.906 65.5013L172.896 65.8525Z" fill="#3E352F"/>
<path d="M150.273 81.2065C150.422 81.3281 150.61 81.3951 150.803 81.3951C150.865 81.3951 150.926 81.3883 150.972 81.3776C151.451 81.2791 151.931 81.1856 152.409 81.0955C152.756 81.0325 153.028 80.7555 153.084 80.4069C153.875 75.599 154.245 70.8817 154.184 66.3863C154.181 66.1357 154.067 65.9009 153.868 65.741C153.719 65.6228 153.533 65.5586 153.343 65.5586C153.287 65.5586 153.231 65.5648 153.17 65.5761C149.134 66.4246 145.05 67.6689 141.059 68.8851L140.89 68.9364C139.247 69.4375 137.602 69.938 135.964 70.4099C135.131 70.643 134.322 70.8361 133.556 70.9814C132.794 71.13 132.118 71.2364 131.475 71.3102C130.868 71.4076 130.219 71.465 129.545 71.4814C129.086 71.4932 128.725 71.862 128.725 72.3203V74.5314C128.725 74.7854 128.839 75.0224 129.035 75.1823C129.185 75.304 129.373 75.3704 129.566 75.3704C129.623 75.3704 129.679 75.3642 129.736 75.3535C133.681 74.5371 137.673 73.349 141.63 72.1745C144.361 71.3631 147.181 70.5259 149.962 69.8294V80.5561C149.963 80.8101 150.076 81.0477 150.273 81.2065Z" fill="#3E352F"/>
<path d="M157.114 63.4876C157.429 63.4696 157.759 63.4589 158.106 63.4589C158.427 63.4589 158.762 63.4685 159.152 63.4865C159.368 63.4865 159.574 63.4043 159.732 63.2562C159.898 63.0986 159.993 62.8773 159.993 62.6476V60.4359C159.993 60.2022 159.895 59.9781 159.723 59.8199C159.57 59.6786 159.372 59.5992 159.1 59.5992C159.095 59.5992 159.09 59.5992 159.085 59.5992C153.724 60.0299 148.381 61.4454 142.931 63.0029V60.8323C145.041 60.2771 147.278 59.7 149.559 59.1938C149.583 59.4106 149.691 59.6076 149.863 59.7461C150.012 59.8678 150.2 59.9348 150.393 59.9348C150.45 59.9348 150.505 59.928 150.565 59.9173C151.105 59.8047 151.645 59.6949 152.186 59.5936C152.495 59.5344 152.743 59.3109 152.832 59.0119C153.052 58.2867 153.243 57.517 153.403 56.7118C153.526 55.932 153.65 54.9157 153.771 53.6894C153.894 52.458 153.955 50.9304 153.956 49.1517V42.5983C153.956 42.3517 153.849 42.1175 153.658 41.9559C153.506 41.8286 153.314 41.7588 153.116 41.7588L152.973 41.7712C150.956 42.1191 148.774 42.5893 146.107 43.2503C145.731 43.3438 145.469 43.6788 145.469 44.0645V44.8843C145.469 45.1433 145.586 45.3843 145.792 45.5453C145.94 45.6602 146.123 45.7233 146.309 45.7233C146.378 45.7233 146.446 45.7148 146.511 45.6985C147.111 45.5498 147.62 45.4744 148.025 45.4744C148.208 45.4744 148.367 45.4896 148.498 45.5206C149.102 45.663 149.288 45.8179 149.291 45.8195C149.406 45.9384 149.506 46.1495 149.552 46.3167V49.2424C146.696 49.8651 143.843 50.6196 141.082 51.3499C138.596 52.007 136.029 52.686 133.491 53.2609V49.0239C133.491 48.7688 133.378 48.5307 133.18 48.3724C133.031 48.2514 132.843 48.1849 132.651 48.1849C132.591 48.1849 132.53 48.1911 132.473 48.2041C129.981 48.7407 127.768 49.1095 125.709 49.3319C125.28 49.3769 124.958 49.7373 124.958 50.1658V50.9856C124.958 51.2232 125.061 51.4507 125.237 51.6094C125.387 51.744 125.579 51.82 125.863 51.82C125.872 51.82 125.881 51.82 125.89 51.8189C126.261 51.7795 126.597 51.7581 126.9 51.7581C127.301 51.7581 127.621 51.7958 127.852 51.8718C128.343 52.0312 128.641 52.1866 128.722 52.2457C128.858 52.3921 128.969 52.6184 129.042 52.8358V64.0715C129.042 64.3204 129.152 64.5563 129.344 64.7168C129.496 64.8418 129.686 64.9105 129.882 64.9105L130.031 64.8975C130.567 64.8013 131.101 64.6993 131.638 64.5912C131.861 64.5462 132.058 64.4099 132.18 64.2196C132.282 64.0608 132.368 63.8638 132.454 63.5974C132.471 63.5434 132.49 63.486 132.51 63.4274C134.672 62.9696 136.818 62.4314 138.526 61.9888V64.2427C134.956 65.2596 131.15 66.2753 127.43 66.8936C126.867 66.9865 126.377 67.0349 125.973 67.0349C125.747 67.0349 125.551 67.0208 125.386 66.9899C124.83 66.8863 124.617 66.7551 124.565 66.7185C124.519 66.6847 124.472 66.6357 124.446 66.4977C124.373 66.1002 124.026 65.8114 123.62 65.8114L122.811 65.8514C122.361 65.8728 122.008 66.2416 122.008 66.6903V69.9256C122.008 70.1559 122.105 70.3789 122.272 70.536C122.428 70.6841 122.633 70.7646 122.849 70.7646L122.902 70.7634C129.144 70.3699 135.438 68.576 141.578 66.8254C145.226 65.7849 148.999 64.7106 152.676 63.9657C153.474 63.8215 154.271 63.7044 155.044 63.6188C155.781 63.5411 156.471 63.4972 157.114 63.4876ZM141.08 57.9872C138.496 58.6707 135.829 59.3768 133.168 59.9708C133.227 59.5333 133.274 59.1307 133.308 58.7636C133.357 58.2163 133.407 57.5046 133.456 56.6296C136.171 56.0249 138.886 55.3065 141.529 54.6077C144.158 53.9123 146.875 53.1939 149.554 52.5999V55.8785C146.725 56.4956 143.869 57.2496 141.08 57.9872Z" fill="#3E352F"/>
<path d="M198.029 47.3995C196.78 48.279 195.716 49.2553 194.867 50.3009C193.929 51.4557 193.453 52.7299 193.453 54.0891C193.453 55.6381 193.945 56.8926 194.918 57.8143C195.844 58.6904 197.027 59.2698 198.43 59.5367C199.214 59.7034 200.064 59.7872 200.958 59.7872C201.604 59.7872 202.29 59.7433 202.996 59.6555C204.59 59.4562 206.234 59.0919 207.879 58.5722C209.266 58.1516 210.696 57.6116 212.13 56.968C213.55 56.3335 214.855 55.5987 216.003 54.7884C217.22 53.9596 218.176 53.0694 218.926 52.0655C219.73 50.9918 220.136 49.7896 220.136 48.4941C220.136 47.0881 219.615 45.9986 218.585 45.2582C217.665 44.5971 216.548 44.1754 215.253 44.0014C214.831 43.9586 214.404 43.9372 213.971 43.9372C213.121 43.9372 212.234 44.0217 211.338 44.1889C210.495 44.3466 209.703 44.5487 208.975 44.7914V41.5403C208.975 41.2824 208.852 41.0336 208.647 40.8742C208.5 40.7627 208.319 40.7008 208.135 40.7008C208.064 40.7008 207.993 40.7104 207.92 40.729L206.923 40.9925C205.624 41.3354 204.326 41.68 203.026 42.011C202.654 42.1062 202.394 42.4412 202.394 42.8241V43.6833C202.394 43.9288 202.5 44.1613 202.687 44.3207C202.81 44.4265 202.961 44.493 203.12 44.5155C202.723 44.703 202.298 44.9102 201.841 45.136C200.521 45.7874 199.239 46.5481 198.029 47.3995ZM207.338 46.1405V47.0583C207.338 47.328 207.469 47.583 207.689 47.7407C207.834 47.8432 208.003 47.8972 208.179 47.8972C208.27 47.8972 208.36 47.8831 208.45 47.8533C209.47 47.507 210.453 47.297 211.372 47.2272C211.651 47.2069 211.92 47.1968 212.18 47.1968C212.762 47.1968 213.317 47.2497 213.766 47.3471C214.376 47.5143 214.871 47.7812 215.235 48.1382C215.561 48.4575 215.74 48.8206 215.779 49.23C215.802 49.7604 215.621 50.2682 215.226 50.7812C214.772 51.3735 214.132 51.9608 213.33 52.5233C212.526 53.0745 211.589 53.601 210.545 54.0886C209.48 54.5863 208.419 54.9895 207.387 55.2862C206.163 55.6634 204.945 55.9438 203.767 56.1189C203.143 56.2118 202.542 56.2591 201.984 56.2591C201.499 56.2591 201.033 56.2237 200.6 56.1533C199.738 56.0131 199.038 55.7152 198.52 55.2682C198.073 54.8819 197.856 54.2958 197.856 53.476C197.856 52.4467 198.328 51.5284 199.297 50.6714C200.396 49.699 201.628 48.8381 202.955 48.114C204.104 47.489 205.576 46.8257 207.338 46.1405Z" fill="#3E352F"/>
<path d="M224.826 57.5035C224.821 57.5035 224.816 57.5035 224.81 57.5035C218.773 57.9833 212.679 59.7372 206.785 61.4331C202.311 62.7208 197.684 64.0513 193.156 64.7974C192.596 64.892 192.104 64.9404 191.699 64.9404C191.473 64.9404 191.278 64.9263 191.112 64.8953C190.558 64.7912 190.344 64.6617 190.293 64.6251C190.246 64.5907 190.199 64.54 190.173 64.4021C190.099 64.0046 189.751 63.7169 189.347 63.7169L188.538 63.7563C188.088 63.7782 187.735 64.1465 187.735 64.5958V67.8311C187.735 68.0625 187.832 68.2861 188 68.4415C188.155 68.5895 188.36 68.67 188.576 68.67L188.629 68.6689C194.87 68.2753 201.164 66.4815 207.257 64.7439C210.921 63.7 214.71 62.62 218.404 61.8706C219.199 61.7253 219.995 61.6082 220.77 61.5232C221.495 61.4444 222.187 61.4004 222.839 61.3914C223.154 61.3734 223.484 61.3627 223.831 61.3627C224.151 61.3627 224.487 61.3723 224.877 61.3903C225.094 61.3903 225.299 61.3081 225.456 61.16C225.623 61.0024 225.717 60.7811 225.717 60.5514V58.3391C225.717 58.106 225.619 57.8814 225.447 57.7237C225.295 57.5829 225.098 57.5035 224.826 57.5035Z" fill="#3E352F"/>
<path d="M221.037 73.0815C220.908 73.0066 220.762 72.9667 220.612 72.9667C220.467 72.9667 220.324 73.0033 220.199 73.0753C219.801 73.2994 219.33 73.4965 218.8 73.6592L217.19 74.1541C216.682 74.2791 216.085 74.4131 215.398 74.5629C212.549 75.1789 209.662 75.9418 206.8 76.698C204.631 77.2723 202.394 77.8641 200.171 78.3878V70.1041C200.171 69.8479 200.056 69.6092 199.855 69.4476C199.706 69.3299 199.519 69.2651 199.33 69.2651C199.265 69.2651 199.2 69.2725 199.144 69.286C196.69 69.84 194.52 70.2364 192.507 70.4954C192.089 70.55 191.775 70.907 191.775 71.3282V72.1469C191.775 72.3884 191.879 72.6181 192.059 72.7758C192.213 72.9109 192.411 72.9858 192.615 72.9858L192.722 72.979C193.154 72.9227 193.538 72.8946 193.866 72.8946C194.23 72.8946 194.524 72.9295 194.742 72.9993C195.128 73.1215 195.383 73.2634 195.514 73.4385C195.64 73.586 195.732 73.8321 195.766 74.0759V81.6124C195.766 81.8646 195.877 82.1011 196.073 82.261C196.224 82.3838 196.413 82.4513 196.607 82.4513L196.766 82.4372C200.267 81.7593 203.809 80.823 207.236 79.917C211.666 78.7447 216.248 77.533 220.732 76.8895C221.149 76.8281 221.451 76.4784 221.451 76.0584V73.8051C221.453 73.5078 221.292 73.2302 221.037 73.0815Z" fill="#3E352F"/>
<path d="M373.223 63.923C374.695 62.5328 376.011 61.1173 377.136 59.7164C378.214 58.3707 379.157 57.0723 379.934 55.8561C380.709 54.6433 381.343 53.5357 381.818 52.565C382.299 51.5825 382.669 50.7261 382.911 50.029C383.196 49.2976 383.437 48.5251 383.627 47.7346C383.696 47.444 383.604 47.1372 383.388 46.9311C383.231 46.7825 383.026 46.7008 382.809 46.7008C382.729 46.7008 382.651 46.7121 382.573 46.7346L380.071 47.4694C375.725 48.7543 371.23 50.0831 366.819 50.8759C366.593 50.9181 366.392 50.9417 366.219 50.9417C365.982 50.9417 365.877 50.8978 365.849 50.8843C365.662 50.7908 365.538 50.6861 365.452 50.5397C365.42 50.4919 365.344 50.3381 365.317 49.9474C365.3 49.7216 365.193 49.5093 365.021 49.3657C364.87 49.2374 364.678 49.167 364.478 49.167C364.469 49.167 363.502 49.2537 363.502 49.2537C363.069 49.2892 362.731 49.6563 362.731 50.0893V53.6934C362.731 53.9344 362.834 54.163 363.012 54.3195C363.162 54.4524 363.353 54.5273 363.639 54.5273C363.65 54.5273 363.659 54.5273 363.669 54.5273C368.484 53.967 373.407 52.6196 377.71 51.3561C377.224 52.5881 376.599 53.842 375.85 55.0909C374.757 56.9084 373.436 58.6809 371.925 60.3611C370.318 62.1713 368.57 63.8154 366.729 65.2501C364.71 66.8193 362.643 68.0952 360.589 69.0389C360.291 69.1751 360.098 69.4741 360.098 69.8018V71.0315C360.098 71.3086 360.235 71.5676 360.464 71.7241C360.603 71.8204 360.768 71.8705 360.939 71.8705C361.046 71.8705 361.15 71.8514 361.244 71.8131C363.561 70.9122 365.833 69.6965 367.997 68.1954C369.87 66.8965 371.629 65.4579 373.223 63.923Z" fill="#3E352F"/>
<path d="M400.415 55.2834C400.63 55.2834 400.835 55.2023 400.994 55.0542C401.16 54.8954 401.255 54.673 401.255 54.4444V51.9867C401.255 51.7586 401.16 51.5357 400.992 51.3763C400.836 51.2294 400.633 51.1489 400.375 51.1489C400.372 51.1489 400.369 51.1489 400.367 51.1489C398.347 51.2637 396.259 51.5357 393.996 51.9788V40.3917C393.996 40.1451 393.889 39.912 393.702 39.7543C393.55 39.6242 393.356 39.5527 393.156 39.5527L393.026 39.5623C390.97 39.8838 388.801 40.3236 386.196 40.9497C385.817 41.0403 385.553 41.3765 385.553 41.765V42.5842C385.553 42.8427 385.671 43.0837 385.876 43.2452C386.024 43.3601 386.207 43.4232 386.394 43.4232C386.462 43.4232 386.528 43.4147 386.592 43.3995C386.739 43.3641 387.022 43.3044 387.446 43.2188C387.656 43.1754 387.878 43.154 388.106 43.154C388.257 43.154 388.41 43.1647 388.59 43.185C388.884 43.2109 389.14 43.31 389.373 43.4902C389.514 43.5989 389.592 43.8635 389.592 44.2329V69.0123C389.592 69.2635 389.703 69.4988 389.898 69.661C390.048 69.7837 390.238 69.8513 390.432 69.8513L390.565 69.8412C390.565 69.8412 391.375 69.6852 391.763 69.6148C392.077 69.5574 392.329 69.331 392.42 69.0236C392.728 67.9679 392.995 66.8299 393.214 65.634C393.396 64.5079 393.574 63.0203 393.743 61.2118C393.893 59.5975 393.977 57.6465 393.993 55.4089C395.443 55.2822 396.803 55.2214 398.141 55.2214C398.883 55.2209 399.626 55.2406 400.415 55.2834Z" fill="#3E352F"/>
<path d="M371.027 83.4153C371.176 83.5364 371.364 83.6028 371.556 83.6028C371.614 83.6028 371.67 83.5967 371.734 83.5843C374.652 82.9576 377.612 82.1755 380.511 81.4103C385.204 80.1699 390.057 78.8861 394.806 78.2746C395.223 78.22 395.538 77.8631 395.538 77.4419V75.1891C395.538 74.9081 395.399 74.648 395.167 74.4926C395.028 74.3991 394.867 74.3502 394.698 74.3502C394.59 74.3502 394.483 74.3704 394.378 74.4121C393.928 74.5979 393.434 74.773 392.91 74.9352L391.464 75.3783C391.007 75.4858 390.475 75.6153 389.903 75.7578C386.633 76.4177 383.322 77.2927 380.073 78.1508L379.92 78.1919C378.319 78.6142 376.72 79.037 375.119 79.4346V70.1413C375.119 69.8829 375.001 69.6419 374.8 69.482C374.652 69.3654 374.467 69.3024 374.278 69.3024C374.216 69.3024 374.151 69.3091 374.081 69.3243C371.451 69.9589 369.266 70.4026 367.207 70.7207C366.794 70.7849 366.494 71.1345 366.494 71.5506V72.3705C366.494 72.6171 366.601 72.8502 366.788 73.0078C366.94 73.1379 367.133 73.2094 367.335 73.2094L367.464 73.1998C367.981 73.1188 368.431 73.0777 368.8 73.0777C369.108 73.0777 369.363 73.1058 369.557 73.1604C369.968 73.2764 370.298 73.4296 370.422 73.5489C370.551 73.6965 370.663 73.9504 370.716 74.1627V82.7633C370.716 83.019 370.83 83.256 371.027 83.4153Z" fill="#3E352F"/>
<path d="M441.535 82.752C442.684 83.1659 444.014 83.3759 445.49 83.3759H445.492L445.735 83.3736C447.253 83.3523 448.923 83.1028 450.703 82.6321C452.384 82.1895 454.016 81.5865 455.553 80.8382C457.081 80.0944 458.438 79.2572 459.584 78.3506C460.765 77.4233 461.678 76.4768 462.37 75.4571C463.112 74.3642 463.489 73.2426 463.489 72.1249C463.489 70.9853 463.089 69.96 462.299 69.0816C461.549 68.2489 460.536 67.5997 459.281 67.1532C458.074 66.7556 456.683 66.549 455.143 66.5394H455.033C453.549 66.5394 451.932 66.768 450.227 67.2185C448.512 67.6729 446.86 68.2967 445.32 69.0743C443.804 69.8434 442.465 70.6745 441.338 71.5495C440.165 72.4915 439.262 73.4492 438.578 74.4757C437.854 75.5669 437.486 76.666 437.486 77.7324C437.448 78.9109 437.823 79.9587 438.602 80.8467C439.337 81.6834 440.324 82.3236 441.535 82.752ZM442.527 75.5157C442.958 74.8484 443.571 74.1992 444.352 73.581C445.15 72.9256 446.098 72.3147 447.172 71.7646C448.262 71.2072 449.449 70.7573 450.704 70.4262C451.927 70.1024 453.078 69.9386 454.122 69.9386H454.14C455.176 69.9408 456.103 70.076 456.901 70.3406C457.599 70.5658 458.158 70.8997 458.559 71.3333C458.919 71.7224 459.086 72.139 459.085 72.6424C459.085 73.1846 458.887 73.7437 458.481 74.3524C458.033 75.0168 457.412 75.6722 456.638 76.2972C455.812 76.9453 454.844 77.5522 453.763 78.099C452.673 78.6462 451.5 79.0877 450.272 79.4114C448.987 79.7515 447.82 79.9193 446.708 79.9266C445.704 79.9266 444.822 79.8005 444.087 79.5516C443.386 79.3152 442.832 78.9779 442.445 78.5522C442.103 78.1738 441.936 77.7476 441.936 77.2482C441.936 76.7065 442.135 76.1232 442.527 75.5157Z" fill="#3E352F"/>
<path d="M436.3 63.0614C434.327 64.9088 432.144 66.5575 429.816 67.9589C429.565 68.1092 429.409 68.3851 429.409 68.6779V69.866C429.409 70.1509 429.551 70.4144 429.787 70.5664C429.924 70.6565 430.083 70.7049 430.249 70.7049C430.366 70.7049 430.478 70.6813 430.586 70.6351C433.932 69.1774 437.053 67.0957 439.859 64.4483C442.072 62.3497 444.044 60.1662 445.723 57.954C447.778 58.6246 449.295 59.4506 450.359 60.4753C451.561 61.6324 452.443 62.6921 452.98 63.6273C453.105 63.8413 453.314 63.9888 453.553 64.0333L453.709 64.0474C453.9 64.0474 454.087 63.9815 454.237 63.861C454.976 63.2653 455.716 62.6746 456.455 62.0896C456.808 61.8109 456.878 61.3064 456.614 60.9421C455.824 59.8453 454.969 58.9055 454.07 58.1482C453.188 57.4067 452.3 56.793 451.434 56.3245C450.539 55.8403 449.659 55.4698 448.818 55.2254C448.471 55.1241 448.134 55.0306 447.811 54.9461C448.675 53.6055 449.402 52.3223 449.975 51.1247C450.676 49.6602 451.246 48.4034 451.67 47.3888C451.797 47.0865 451.736 46.7374 451.517 46.4998C451.359 46.3241 451.132 46.225 450.896 46.225C450.813 46.225 450.73 46.2374 450.645 46.2627L449.315 46.6799C445.13 47.9913 440.803 49.3466 436.547 50.2227C436.266 50.288 436.018 50.3218 435.812 50.3218C435.619 50.3218 435.508 50.2919 435.449 50.2677C435.11 50.1269 434.989 49.9991 434.97 49.9766C434.901 49.8809 434.808 49.6906 434.756 49.3252C434.698 48.9136 434.341 48.6028 433.925 48.6028C433.915 48.6028 432.948 48.6917 432.948 48.6917C432.515 48.7272 432.177 49.0943 432.177 49.5273V53.2547C432.177 53.4985 432.283 53.7294 432.465 53.887C432.618 54.021 432.814 54.0937 433.018 54.0937L433.133 54.0852C437.357 53.5002 441.444 52.3752 445.256 51.2136C444.294 53.239 443.098 55.1815 441.698 56.9968C439.856 59.3858 438.038 61.4263 436.3 63.0614Z" fill="#3E352F"/>
<path d="M469.727 53.9123C469.942 53.9123 470.147 53.8312 470.307 53.6831C470.473 53.5244 470.568 53.3019 470.568 53.0733V50.6156C470.568 50.3876 470.473 50.1646 470.304 50.0053C470.148 49.8583 469.946 49.7778 469.687 49.7778C469.684 49.7778 469.682 49.7778 469.68 49.7778C467.659 49.8927 465.571 50.1646 463.307 50.6077V40.618C463.307 40.3714 463.2 40.1383 463.013 39.9806C462.861 39.8506 462.668 39.7791 462.466 39.7791L462.337 39.7881C460.291 40.1079 458.135 40.5454 455.555 41.1642C455.175 41.2554 454.91 41.5904 454.91 41.9806V42.7998C454.91 43.0583 455.027 43.2993 455.232 43.4609C455.38 43.5757 455.564 43.6388 455.75 43.6388C455.813 43.6388 455.879 43.6315 455.95 43.6157C456.121 43.5735 456.412 43.5189 456.819 43.4485C457.067 43.4074 457.32 43.386 457.571 43.386C457.698 43.386 457.825 43.3922 457.901 43.3967C458.207 43.4395 458.469 43.5493 458.704 43.7306C458.832 43.8314 458.903 44.0904 458.903 44.4603V65.4713C458.903 65.7229 459.015 65.96 459.211 66.1205C459.361 66.2426 459.55 66.3102 459.743 66.3102L459.907 66.2939C460.356 66.206 460.805 66.1205 461.253 66.0411C461.593 65.982 461.865 65.7128 461.931 65.3722C462.175 64.0935 462.388 62.9032 462.573 61.7799C462.726 60.6819 462.878 59.406 463.031 57.9505C463.16 56.7067 463.247 55.3931 463.288 54.0407C464.751 53.9134 466.116 53.8515 467.453 53.8515C468.196 53.8504 468.938 53.8695 469.727 53.9123Z" fill="#3E352F"/>
<path d="M502.284 67.2776C502.439 67.4206 502.64 67.4988 502.853 67.4988L502.929 67.4955C503.391 67.4538 503.852 67.4048 504.313 67.3491C504.63 67.3125 504.903 67.0918 505.007 66.7916C505.034 66.7156 505.067 66.6278 505.109 66.5242C505.169 66.371 505.218 66.2156 505.215 66.2004C505.251 66.1154 505.308 65.9763 505.352 65.8632C509.427 65.299 513.541 64.2754 517.424 63.259C517.472 63.433 517.577 63.5912 517.722 63.7033C517.869 63.8153 518.051 63.8767 518.234 63.8767C518.304 63.8767 518.375 63.8677 518.449 63.8491L519.811 63.4893C520.086 63.4167 520.304 63.2129 520.392 62.9454C520.923 61.3604 521.303 59.6572 521.519 57.8841C521.734 56.1156 521.843 54.2963 521.843 52.4777V45.105C521.843 44.8438 521.724 44.6016 521.516 44.4406C521.369 44.3269 521.187 44.2655 521.002 44.2655C520.933 44.2655 520.863 44.2745 520.789 44.2931L518.741 44.8331C517.113 45.2632 515.485 45.6923 513.857 46.096C513.481 46.1895 513.219 46.5245 513.219 46.9107V47.7289C513.219 47.9884 513.337 48.2294 513.542 48.3899C513.69 48.5047 513.873 48.5678 514.059 48.5678C514.128 48.5678 514.196 48.5599 514.261 48.5436C514.951 48.373 515.519 48.2863 515.951 48.2863C516.088 48.2863 516.212 48.2959 516.325 48.3139C516.899 48.4102 517.123 48.556 517.192 48.614C517.311 48.7148 517.394 48.8741 517.439 49.0329V52.2609C513.721 53.2383 510.078 54.1584 506.414 54.7479V49.7046C506.414 49.4608 506.308 49.2305 506.124 49.0695C505.97 48.9389 505.775 48.8662 505.573 48.8662L505.453 48.8741C503.255 49.1928 501.243 49.3555 499.305 49.3713C498.845 49.3747 498.47 49.7502 498.47 50.2102V51.03C498.47 51.2525 498.56 51.4692 498.72 51.6263C498.877 51.7829 499.087 51.8696 499.311 51.8696L499.425 51.8684C500.168 51.8684 500.706 51.9433 501.02 52.0897C501.365 52.2496 501.643 52.4332 501.767 52.5723C501.885 52.731 501.976 52.9709 502.011 53.1837V66.6588C502.012 66.8964 502.112 67.1216 502.284 67.2776ZM506.183 61.0198C506.244 60.5096 506.298 59.9511 506.344 59.3464C506.376 58.9511 506.396 58.5299 506.407 58.0896C510.149 57.5035 513.898 56.5649 517.44 55.637V59.8818C513.564 60.8993 509.765 61.8548 505.972 62.4375C506.05 62.0062 506.12 61.535 506.183 61.0198Z" fill="#3E352F"/>
<path d="M532.04 59.4072C532.194 58.5705 532.35 57.4421 532.501 56.0559C532.635 54.8346 532.736 53.3177 532.8 51.5407C534.264 51.4135 535.631 51.351 536.97 51.351C537.711 51.351 538.455 51.3701 539.244 51.4135C539.458 51.4135 539.663 51.3324 539.822 51.1838C539.989 51.0255 540.084 50.8026 540.084 50.5745V48.1168C540.084 47.8882 539.989 47.6658 539.82 47.5059C539.664 47.3595 539.462 47.279 539.204 47.279C539.2 47.279 539.198 47.279 539.196 47.279C537.175 47.3933 535.087 47.6652 532.823 48.1089V39.7571C532.823 39.5105 532.717 39.2774 532.528 39.1186C532.376 38.9885 532.182 38.9176 531.983 38.9176L531.853 38.9283C529.818 39.247 527.599 39.6969 525.071 40.3033C524.692 40.3939 524.427 40.7295 524.427 41.1197V41.939C524.427 42.1974 524.544 42.4384 524.746 42.5977C524.894 42.7148 525.079 42.7779 525.267 42.7779C525.331 42.7779 525.396 42.7706 525.463 42.7554C525.87 42.6574 526.293 42.5893 526.719 42.5538C526.849 42.5437 526.973 42.5386 527.095 42.5386C527.336 42.5386 527.565 42.56 527.722 42.5898C527.956 42.6535 528.128 42.7559 528.263 42.9125C528.322 42.98 528.42 43.1591 528.42 43.5994V61.7439C528.42 61.9922 528.529 62.2253 528.723 62.3886C527.565 62.6228 526.335 62.8959 524.978 63.2213C524.6 63.3125 524.336 63.6487 524.336 64.0366V64.8564C524.336 65.1143 524.453 65.3553 524.655 65.5152C524.803 65.6317 524.988 65.6954 525.176 65.6954C525.239 65.6954 525.304 65.6881 525.374 65.6728C525.894 65.5467 526.34 65.4831 526.701 65.4831C526.885 65.4831 527.045 65.4994 527.178 65.5327C527.522 65.6171 527.754 65.7292 527.882 65.8784C528.004 66.0067 528.096 66.2044 528.147 66.3992V68.5675C525.074 69.21 521.971 70.0292 518.968 70.8231L519.049 71.1277L518.812 70.8642C517.156 71.3023 515.454 71.7522 513.766 72.1683V68.036C513.766 67.7781 513.649 67.5371 513.447 67.3772C513.299 67.2607 513.115 67.197 512.926 67.197C512.862 67.197 512.797 67.2044 512.729 67.2196C510.362 67.7866 508.289 68.2105 506.394 68.5168C505.984 68.5822 505.687 68.9307 505.687 69.3451V70.2043C505.687 70.4509 505.794 70.684 505.982 70.844C506.134 70.9729 506.328 71.0433 506.527 71.0433L506.662 71.032C507.025 70.9735 507.349 70.9436 507.626 70.9436C507.919 70.9436 508.164 70.9791 508.336 71.0444C508.684 71.1773 508.921 71.3248 509.044 71.4909C509.189 71.6733 509.307 71.9594 509.362 72.2161V83.3978C509.362 83.6529 509.476 83.8905 509.674 84.0504C509.824 84.1715 510.012 84.2368 510.203 84.2368C510.261 84.2368 510.319 84.2306 510.379 84.2182C510.988 84.0887 511.599 83.953 512.207 83.8117C512.476 83.7492 512.695 83.5206 512.793 83.3218L512.887 83.1326C512.954 82.993 513.013 82.8376 513.044 82.7143C513.075 82.6191 513.102 82.511 513.126 82.3674C515.179 81.8753 517.254 81.3263 519.318 80.7813C522.206 80.0184 525.187 79.229 528.147 78.5983V78.7949C528.147 79.0482 528.261 79.2847 528.455 79.4435C528.605 79.5668 528.793 79.6338 528.988 79.6338L529.154 79.618C529.737 79.5009 530.321 79.3906 530.904 79.2881C531.242 79.2278 531.508 78.9739 531.579 78.6417C531.738 77.9182 531.941 76.7059 532.179 75.0398C532.426 73.3287 532.551 70.9526 532.551 67.9797V62.696C532.551 62.451 532.444 62.2185 532.255 62.0563C532.104 61.9274 531.91 61.857 531.711 61.857L531.577 61.8689C531.5 61.8807 531.421 61.8947 531.343 61.9071C531.369 61.8638 531.396 61.8216 531.413 61.7731C531.668 61.0676 531.879 60.2726 532.04 59.4072ZM528.149 75.3664C525.042 76.0156 521.918 76.8427 518.894 77.6417C517.145 78.104 515.35 78.5781 513.567 79.0167C513.606 78.5679 513.643 78.0877 513.675 77.5691C513.719 76.8405 513.748 76.1603 513.759 75.5365C515.567 75.095 517.391 74.6142 519.165 74.1463L519.346 74.0978C522.224 73.3366 525.196 72.55 528.148 71.9211V75.3664H528.149Z" fill="#3E352F"/>
<path d="M238.011 119.74H237.628C237.579 119.74 237.535 119.776 237.525 119.825C237.437 120.293 237.249 120.682 236.967 120.983C236.688 121.283 236.321 121.429 235.844 121.429C235.452 121.429 235.077 121.349 234.73 121.196C234.384 121.044 234.078 120.824 233.822 120.546C233.566 120.261 233.36 119.913 233.21 119.511C233.06 119.11 232.984 118.656 232.984 118.165C232.984 117.721 233.054 117.311 233.192 116.944C233.328 116.579 233.518 116.26 233.755 115.999C233.997 115.739 234.286 115.535 234.613 115.389C234.94 115.243 235.302 115.168 235.686 115.168C236.221 115.168 236.648 115.29 236.95 115.531C237.249 115.771 237.447 116.165 237.534 116.705C237.542 116.757 237.586 116.794 237.638 116.794H237.983C238.011 116.794 238.039 116.782 238.059 116.761C238.079 116.739 238.09 116.71 238.088 116.682L237.984 115.159C237.983 115.119 237.956 115.083 237.919 115.069C237.587 114.938 237.225 114.817 236.835 114.708C236.439 114.598 236.038 114.542 235.64 114.542C235.158 114.542 234.686 114.633 234.234 114.812C233.782 114.995 233.374 115.25 233.021 115.572C232.671 115.896 232.386 116.285 232.176 116.726C231.962 117.172 231.854 117.665 231.854 118.192C231.854 118.772 231.947 119.304 232.131 119.771C232.314 120.239 232.578 120.648 232.916 120.985C233.255 121.323 233.661 121.585 234.124 121.764C234.585 121.946 235.105 122.037 235.668 122.037C235.833 122.037 236.017 122.025 236.22 122C236.424 121.973 236.626 121.936 236.825 121.887C237.022 121.843 237.207 121.788 237.378 121.724C237.548 121.663 237.692 121.594 237.854 121.449L238.115 119.862C238.12 119.831 238.111 119.801 238.091 119.777C238.072 119.754 238.042 119.74 238.011 119.74Z" fill="#3E352F"/>
<path d="M245.673 121.346C245.52 121.334 245.39 121.313 245.29 121.284C245.195 121.258 245.117 121.214 245.045 121.147C244.977 121.09 244.913 121.007 244.856 120.901C244.797 120.787 244.737 120.64 244.677 120.461L242.66 114.493C242.646 114.451 242.606 114.422 242.561 114.422H242.197C242.152 114.422 242.113 114.45 242.097 114.492L240.025 120.44C239.959 120.616 239.897 120.764 239.843 120.882C239.794 120.99 239.735 121.078 239.67 121.145C239.607 121.207 239.533 121.249 239.443 121.275C239.35 121.304 239.221 121.319 239.064 121.319C239.006 121.319 238.959 121.365 238.959 121.423V121.776C238.959 121.834 239.005 121.88 239.064 121.88L240.18 121.871L241.297 121.88C241.355 121.88 241.401 121.834 241.401 121.776V121.441C241.401 121.383 241.355 121.337 241.297 121.337C240.804 121.337 240.702 121.227 240.681 121.179C240.644 121.098 240.627 120.928 240.755 120.576L241.203 119.3H243.256L243.678 120.56C243.739 120.754 243.781 120.91 243.806 121.028C243.829 121.146 243.815 121.204 243.798 121.232C243.778 121.27 243.728 121.297 243.651 121.313C243.547 121.334 243.401 121.343 243.212 121.343C243.153 121.343 243.106 121.389 243.106 121.448V121.776C243.106 121.834 243.153 121.88 243.212 121.88L244.439 121.871L245.666 121.88C245.724 121.88 245.771 121.834 245.771 121.776V121.451C245.77 121.395 245.728 121.35 245.673 121.346ZM241.416 118.673L242.244 116.271L243.056 118.673H241.416Z" fill="#3E352F"/>
<path d="M250.419 118.62C250.274 118.473 250.102 118.342 249.907 118.229C249.718 118.119 249.531 118.015 249.34 117.912C249.145 117.821 248.953 117.72 248.767 117.611C248.584 117.502 248.42 117.379 248.278 117.244C248.137 117.115 248.026 116.973 247.937 116.81C247.853 116.658 247.81 116.48 247.81 116.281C247.81 115.964 247.906 115.705 248.104 115.489C248.296 115.277 248.593 115.169 248.988 115.169C249.29 115.169 249.519 115.25 249.669 115.408C249.824 115.569 249.929 115.824 249.981 116.167C249.989 116.218 250.033 116.256 250.085 116.256H250.485C250.515 116.256 250.545 116.244 250.564 116.221C250.584 116.197 250.594 116.167 250.59 116.138L250.413 114.784C250.405 114.735 250.369 114.699 250.321 114.693C250.219 114.681 250.122 114.666 250.032 114.647C249.937 114.628 249.841 114.613 249.746 114.6L249.457 114.562C249.353 114.551 249.244 114.544 249.127 114.544C248.817 114.544 248.525 114.588 248.259 114.675C247.989 114.759 247.752 114.89 247.553 115.062C247.351 115.238 247.189 115.459 247.074 115.721C246.961 115.978 246.904 116.285 246.904 116.634C246.904 116.936 246.957 117.199 247.063 117.418C247.164 117.633 247.298 117.828 247.464 118C247.627 118.161 247.808 118.302 248.003 118.418C248.197 118.535 248.389 118.641 248.572 118.739L249.092 119.045C249.253 119.141 249.396 119.244 249.519 119.356C249.64 119.469 249.738 119.602 249.815 119.749C249.888 119.893 249.924 120.066 249.924 120.263C249.924 120.601 249.801 120.873 249.55 121.094C249.295 121.321 248.974 121.431 248.569 121.431C248.365 121.431 248.191 121.394 248.051 121.322C247.911 121.249 247.791 121.149 247.695 121.027C247.597 120.9 247.516 120.75 247.455 120.582C247.392 120.406 247.342 120.226 247.306 120.04C247.296 119.99 247.253 119.956 247.203 119.956H246.802C246.771 119.956 246.743 119.968 246.723 119.991C246.703 120.014 246.693 120.045 246.698 120.075L246.981 121.714C247.229 121.828 247.474 121.913 247.714 121.962C247.952 122.013 248.221 122.039 248.513 122.039C248.808 122.039 249.104 121.994 249.39 121.905C249.68 121.815 249.942 121.679 250.166 121.498C250.395 121.322 250.582 121.097 250.727 120.828C250.869 120.557 250.942 120.239 250.942 119.883C250.942 119.603 250.894 119.357 250.797 119.153C250.704 118.949 250.577 118.77 250.419 118.62Z" fill="#3E352F"/>
<path d="M258.451 114.682C258.446 114.682 258.441 114.682 258.437 114.683C258.354 114.695 258.218 114.704 258.03 114.711C257.84 114.717 257.636 114.72 257.42 114.72C257.197 114.72 256.986 114.719 256.783 114.714C256.587 114.712 256.442 114.704 256.346 114.692C256.341 114.692 256.336 114.692 256.332 114.692C256.307 114.692 256.283 114.702 256.263 114.718C256.24 114.738 256.227 114.767 256.227 114.797V115.159C256.227 115.216 256.271 115.262 256.329 115.263C256.51 115.27 256.655 115.281 256.759 115.294C256.843 115.307 256.907 115.333 256.944 115.369C256.983 115.413 257.011 115.482 257.024 115.573C257.038 115.68 257.046 115.83 257.046 116.022V119.54C257.046 120.085 256.891 120.526 256.587 120.85C256.284 121.174 255.895 121.338 255.431 121.338C254.785 121.338 254.307 121.168 254.014 120.834C253.717 120.496 253.565 119.936 253.565 119.168V116.021C253.565 115.838 253.574 115.692 253.597 115.582C253.614 115.49 253.645 115.424 253.689 115.385C253.743 115.337 253.817 115.305 253.909 115.289C254.02 115.272 254.17 115.26 254.357 115.254C254.414 115.253 254.458 115.206 254.458 115.149V114.797C254.458 114.767 254.446 114.739 254.424 114.719C254.405 114.702 254.379 114.692 254.353 114.692C254.35 114.692 254.346 114.692 254.343 114.692C254.221 114.704 254.038 114.712 253.793 114.714C253.546 114.719 253.288 114.72 253.023 114.72C252.752 114.72 252.494 114.719 252.252 114.714C252.017 114.712 251.843 114.704 251.734 114.692C251.729 114.692 251.726 114.692 251.722 114.692C251.696 114.692 251.672 114.702 251.652 114.719C251.63 114.738 251.617 114.767 251.617 114.797V115.149C251.617 115.206 251.661 115.253 251.719 115.254C251.898 115.26 252.045 115.272 252.155 115.289C252.248 115.305 252.322 115.337 252.376 115.386C252.422 115.424 252.455 115.491 252.474 115.585C252.498 115.694 252.51 115.84 252.51 116.02V119.423C252.521 120.308 252.77 120.972 253.246 121.395C253.718 121.816 254.366 122.029 255.171 122.029C255.589 122.029 255.966 121.967 256.291 121.842C256.616 121.717 256.893 121.542 257.112 121.322C257.339 121.096 257.513 120.827 257.625 120.525C257.738 120.224 257.795 119.89 257.795 119.533V115.993C257.795 115.806 257.801 115.658 257.813 115.55C257.822 115.462 257.848 115.394 257.888 115.35C257.922 115.312 257.976 115.288 258.052 115.275C258.152 115.262 258.284 115.254 258.451 115.254C258.51 115.254 258.556 115.208 258.556 115.149V114.787C258.556 114.756 258.544 114.728 258.52 114.708C258.5 114.691 258.475 114.682 258.451 114.682Z" fill="#3E352F"/>
<path d="M265.492 121.346C265.338 121.334 265.209 121.313 265.108 121.285C265.015 121.258 264.936 121.214 264.863 121.147C264.795 121.089 264.732 121.007 264.675 120.9C264.615 120.787 264.556 120.64 264.495 120.461L262.479 114.493C262.465 114.451 262.424 114.422 262.379 114.422H262.016C261.97 114.422 261.931 114.45 261.916 114.492L259.844 120.44C259.778 120.616 259.718 120.763 259.661 120.882C259.612 120.99 259.554 121.078 259.488 121.145C259.425 121.207 259.351 121.249 259.261 121.275C259.167 121.304 259.042 121.319 258.883 121.319C258.824 121.319 258.778 121.365 258.778 121.423V121.776C258.778 121.834 258.824 121.88 258.883 121.88L259.999 121.871L261.115 121.88C261.174 121.88 261.22 121.834 261.22 121.776V121.441C261.22 121.383 261.174 121.337 261.115 121.337C260.622 121.337 260.52 121.227 260.499 121.179C260.462 121.098 260.445 120.928 260.573 120.576L261.023 119.3H263.075L263.496 120.56C263.557 120.754 263.6 120.91 263.624 121.028C263.648 121.146 263.634 121.204 263.616 121.232C263.596 121.27 263.547 121.297 263.469 121.313C263.367 121.334 263.219 121.343 263.03 121.343C262.971 121.343 262.925 121.389 262.925 121.448V121.776C262.925 121.834 262.971 121.88 263.03 121.88L264.257 121.871L265.484 121.88C265.543 121.88 265.589 121.834 265.589 121.776V121.451C265.589 121.395 265.546 121.35 265.492 121.346ZM261.235 118.673L262.062 116.271L262.874 118.673H261.235Z" fill="#3E352F"/>
<path d="M272.111 120.056H271.73C271.683 120.056 271.641 120.088 271.628 120.134C271.561 120.387 271.489 120.592 271.412 120.74C271.34 120.883 271.251 120.998 271.156 121.079C271.052 121.156 270.922 121.208 270.768 121.231C270.603 121.259 270.399 121.272 270.159 121.272C269.815 121.272 269.534 121.264 269.315 121.248C269.113 121.235 268.955 121.2 268.849 121.142C268.748 121.093 268.683 121.025 268.649 120.932C268.61 120.828 268.59 120.678 268.59 120.487V116.011C268.59 115.828 268.6 115.684 268.622 115.577C268.638 115.489 268.669 115.424 268.714 115.384C268.768 115.335 268.841 115.304 268.936 115.292C269.052 115.277 269.203 115.265 269.391 115.259C269.449 115.258 269.493 115.211 269.493 115.154V114.796C269.493 114.766 269.48 114.738 269.459 114.718C269.439 114.7 269.414 114.691 269.388 114.691C269.385 114.691 269.382 114.691 269.377 114.691C269.249 114.703 269.063 114.711 268.818 114.713C268.572 114.718 268.311 114.718 268.039 114.718C267.774 114.718 267.522 114.718 267.283 114.713C267.05 114.711 266.877 114.703 266.768 114.691C266.763 114.691 266.76 114.691 266.756 114.691C266.73 114.691 266.705 114.7 266.686 114.718C266.664 114.737 266.651 114.766 266.651 114.796V115.148C266.651 115.205 266.695 115.252 266.753 115.253C266.936 115.259 267.083 115.27 267.198 115.286C267.295 115.298 267.366 115.325 267.408 115.362C267.453 115.409 267.485 115.477 267.503 115.566C267.525 115.674 267.535 115.819 267.535 116.002V120.485C267.535 120.688 267.524 120.849 267.503 120.968C267.485 121.07 267.452 121.15 267.404 121.203C267.359 121.253 267.285 121.29 267.19 121.311C267.08 121.333 266.934 121.346 266.756 121.346C266.697 121.346 266.651 121.392 266.651 121.45V121.775C266.651 121.804 266.662 121.83 266.682 121.85C266.701 121.869 266.728 121.88 266.756 121.88C266.757 121.88 267.872 121.861 267.872 121.861C268.312 121.855 268.767 121.852 269.238 121.852C269.709 121.852 270.164 121.855 270.604 121.861C270.604 121.861 271.71 121.88 271.711 121.88C271.759 121.88 271.802 121.847 271.813 121.8L272.212 120.186C272.221 120.154 272.213 120.121 272.194 120.096C272.174 120.07 272.143 120.056 272.111 120.056Z" fill="#3E352F"/>
<path d="M282.959 121.337H282.735C282.652 121.337 282.559 121.325 282.458 121.301C282.359 121.283 282.264 121.254 282.174 121.215C282.092 121.18 282.026 121.126 281.975 121.054L279.5 117.694L280.969 116.252C281.177 116.046 281.36 115.876 281.516 115.744C281.669 115.615 281.81 115.512 281.934 115.434C282.05 115.365 282.157 115.317 282.254 115.291C282.356 115.266 282.461 115.253 282.568 115.253C282.627 115.253 282.673 115.207 282.673 115.149V114.806C282.673 114.776 282.66 114.747 282.638 114.726C282.618 114.711 282.594 114.701 282.568 114.701C282.564 114.701 282.559 114.701 282.555 114.701C282.454 114.713 282.312 114.719 282.131 114.719H281.546C281.336 114.719 281.135 114.716 280.945 114.71C280.754 114.704 280.497 114.691 280.495 114.691C280.468 114.691 280.443 114.702 280.423 114.72C280.402 114.74 280.39 114.767 280.39 114.796V115.149C280.39 115.207 280.437 115.253 280.495 115.253C280.721 115.253 280.831 115.27 280.883 115.283L280.892 115.406C280.856 115.46 280.818 115.514 280.779 115.562C280.732 115.615 280.684 115.668 280.636 115.714L278.323 117.954V116.012C278.323 115.828 278.333 115.682 278.35 115.575C278.365 115.484 278.394 115.415 278.432 115.372C278.473 115.332 278.532 115.303 278.606 115.289C278.698 115.271 278.817 115.26 278.966 115.254C279.023 115.252 279.067 115.206 279.067 115.149V114.797C279.067 114.768 279.055 114.74 279.034 114.72C279.014 114.703 278.989 114.692 278.962 114.692C278.96 114.692 278.958 114.692 278.956 114.692C278.852 114.698 278.688 114.704 278.464 114.706L277.736 114.711L277.001 114.706C276.769 114.703 276.596 114.698 276.486 114.692C276.485 114.692 276.483 114.692 276.48 114.692C276.454 114.692 276.428 114.703 276.409 114.721C276.387 114.74 276.375 114.768 276.375 114.797V115.149C276.375 115.206 276.419 115.253 276.477 115.254C276.657 115.26 276.805 115.272 276.92 115.289C277.014 115.305 277.089 115.334 277.135 115.376C277.185 115.422 277.22 115.489 277.237 115.578C277.258 115.684 277.268 115.828 277.268 116.012V120.513C277.268 120.71 277.256 120.867 277.233 120.98C277.211 121.082 277.177 121.159 277.135 121.206C277.081 121.253 277.006 121.286 276.911 121.303C276.802 121.324 276.658 121.334 276.48 121.334C276.422 121.334 276.375 121.38 276.375 121.439V121.776C276.375 121.805 276.387 121.833 276.409 121.852C276.428 121.87 276.454 121.881 276.48 121.881C276.483 121.881 276.485 121.881 276.486 121.881C276.603 121.875 276.777 121.871 277.01 121.871H277.754L279.009 121.881C279.068 121.881 279.114 121.835 279.114 121.776V121.439C279.114 121.381 279.068 121.334 279.009 121.334C278.848 121.334 278.719 121.324 278.626 121.304C278.546 121.287 278.486 121.256 278.446 121.213C278.397 121.16 278.366 121.085 278.35 120.984C278.333 120.868 278.323 120.71 278.323 120.513L278.292 118.879L278.82 118.354L281.408 121.88L282.17 121.871L282.96 121.88C283.018 121.88 283.065 121.834 283.065 121.776V121.441C283.064 121.383 283.017 121.337 282.959 121.337Z" fill="#3E352F"/>
<path d="M289.519 115.662C289.202 115.325 288.824 115.052 288.395 114.851C287.967 114.647 287.503 114.543 287.016 114.543C286.483 114.543 285.988 114.654 285.543 114.873C285.102 115.094 284.72 115.384 284.409 115.739C284.099 116.091 283.855 116.499 283.683 116.95C283.512 117.398 283.426 117.864 283.426 118.331C283.426 118.825 283.519 119.302 283.703 119.751C283.886 120.196 284.144 120.593 284.468 120.928C284.786 121.264 285.165 121.536 285.597 121.737C286.032 121.936 286.5 122.038 286.989 122.038C287.522 122.038 288.015 121.928 288.454 121.712C288.888 121.497 289.266 121.208 289.578 120.853C289.889 120.504 290.133 120.097 290.303 119.644C290.475 119.196 290.561 118.728 290.561 118.258C290.561 117.768 290.467 117.294 290.284 116.849C290.1 116.404 289.844 116.003 289.519 115.662ZM289.217 119.718C289.112 120.069 288.961 120.378 288.765 120.635C288.571 120.887 288.332 121.085 288.053 121.221C287.776 121.359 287.456 121.429 287.101 121.429C286.683 121.429 286.317 121.322 286.012 121.112C285.701 120.9 285.436 120.623 285.226 120.289C285.017 119.96 284.859 119.59 284.756 119.192C284.653 118.788 284.602 118.402 284.602 118.044C284.602 117.624 284.658 117.231 284.77 116.879C284.88 116.526 285.041 116.219 285.25 115.966C285.449 115.719 285.691 115.522 285.971 115.381C286.251 115.241 286.561 115.169 286.896 115.169C287.306 115.169 287.668 115.277 287.975 115.49C288.288 115.708 288.549 115.982 288.75 116.308C288.959 116.643 289.117 117.012 289.22 117.406C289.323 117.8 289.376 118.181 289.376 118.535C289.376 118.964 289.323 119.361 289.217 119.718Z" fill="#3E352F"/>
<path d="M297.991 121.337C297.755 121.337 297.554 121.277 297.393 121.161C297.221 121.037 297.071 120.895 296.945 120.732C296.829 120.597 296.694 120.432 296.544 120.236C296.394 120.038 296.242 119.827 296.086 119.596C295.926 119.375 295.771 119.151 295.62 118.918C295.496 118.732 295.386 118.555 295.292 118.39C295.429 118.34 295.564 118.272 295.696 118.187C295.865 118.077 296.016 117.941 296.148 117.785C296.277 117.629 296.384 117.448 296.465 117.247C296.548 117.043 296.588 116.821 296.588 116.586C296.588 116.403 296.556 116.206 296.487 115.985C296.419 115.765 296.296 115.557 296.124 115.366C295.955 115.176 295.716 115.016 295.418 114.888C295.121 114.763 294.741 114.7 294.287 114.7C294.287 114.7 293.911 114.711 293.66 114.713C293.41 114.717 293.151 114.718 292.886 114.718C292.627 114.718 292.376 114.717 292.135 114.713C291.893 114.711 291.7 114.705 291.552 114.7C291.551 114.7 291.549 114.7 291.547 114.7C291.521 114.7 291.494 114.711 291.475 114.729C291.454 114.748 291.443 114.776 291.443 114.805V115.147C291.443 115.204 291.487 115.251 291.544 115.252C291.723 115.258 291.871 115.271 291.981 115.288C292.074 115.303 292.145 115.332 292.189 115.37C292.236 115.417 292.27 115.488 292.29 115.579C292.314 115.685 292.326 115.827 292.326 116.001V120.503C292.326 120.712 292.314 120.876 292.294 120.995C292.277 121.097 292.243 121.177 292.199 121.226C292.151 121.272 292.08 121.304 291.986 121.319C291.872 121.335 291.726 121.345 291.547 121.345C291.488 121.345 291.442 121.391 291.442 121.45V121.784C291.442 121.813 291.454 121.84 291.475 121.86C291.494 121.878 291.52 121.889 291.547 121.889C291.549 121.889 291.848 121.878 292.087 121.875L292.849 121.87L293.625 121.875C293.867 121.879 294.177 121.889 294.178 121.889C294.205 121.889 294.231 121.878 294.251 121.86C294.272 121.84 294.283 121.813 294.283 121.784V121.441C294.283 121.382 294.237 121.336 294.178 121.336C293.987 121.336 293.836 121.325 293.72 121.301C293.622 121.28 293.552 121.243 293.503 121.185C293.454 121.132 293.422 121.056 293.407 120.957C293.389 120.839 293.38 120.688 293.38 120.503V118.625L294.209 118.582C294.359 118.817 294.526 119.078 294.713 119.363L295.28 120.228L295.867 121.082C296.06 121.362 296.243 121.617 296.508 121.889C296.706 121.877 296.944 121.87 297.227 121.87C297.51 121.87 297.761 121.877 297.983 121.889C297.985 121.889 297.988 121.889 297.99 121.889C298.016 121.889 298.042 121.878 298.061 121.86C298.083 121.84 298.095 121.813 298.095 121.784V121.441C298.095 121.383 298.049 121.337 297.991 121.337ZM295.118 117.572C294.991 117.698 294.828 117.799 294.619 117.882C294.411 117.964 294.154 118.006 293.854 118.006H293.682C293.62 118.006 293.424 117.995 293.382 117.994V115.326C293.442 115.32 293.503 115.316 293.563 115.314L293.918 115.31C294.497 115.31 294.904 115.439 295.128 115.692C295.357 115.953 295.469 116.271 295.469 116.663C295.469 116.826 295.441 116.988 295.386 117.144C295.332 117.299 295.244 117.44 295.118 117.572Z" fill="#3E352F"/>
<path d="M304.427 120.056H304.018C303.972 120.056 303.931 120.086 303.918 120.13C303.845 120.371 303.771 120.568 303.696 120.722C303.625 120.866 303.539 120.976 303.438 121.057C303.345 121.138 303.228 121.193 303.09 121.223C302.941 121.255 302.75 121.272 302.521 121.272H301.833C301.61 121.272 301.429 121.264 301.29 121.248C301.172 121.236 301.079 121.204 301.017 121.156C300.961 121.11 300.924 121.043 300.904 120.955C300.881 120.852 300.868 120.709 300.868 120.532V118.521H302.084C302.197 118.521 302.291 118.532 302.363 118.551C302.419 118.565 302.459 118.594 302.489 118.64C302.523 118.695 302.548 118.779 302.561 118.884C302.576 119.004 302.583 119.164 302.583 119.364C302.583 119.423 302.63 119.469 302.688 119.469H303.07C303.129 119.469 303.175 119.423 303.175 119.364V117.08C303.175 117.021 303.129 116.975 303.07 116.975H302.688C302.63 116.975 302.583 117.021 302.583 117.08C302.583 117.509 302.516 117.657 302.477 117.706C302.411 117.788 302.282 117.83 302.094 117.83H300.868V115.31H302.037C302.278 115.31 302.473 115.324 302.622 115.35C302.758 115.375 302.862 115.421 302.933 115.486C303.01 115.558 303.067 115.663 303.102 115.798C303.142 115.949 303.176 116.151 303.206 116.406C303.213 116.459 303.258 116.498 303.311 116.498H303.684C303.742 116.498 303.789 116.451 303.789 116.393V114.815C303.789 114.786 303.777 114.759 303.757 114.739C303.737 114.721 303.711 114.71 303.684 114.71C303.684 114.71 303.682 114.71 303.68 114.71C303.333 114.722 302.963 114.731 302.567 114.733C302.17 114.737 301.768 114.738 301.359 114.738C300.949 114.738 300.546 114.737 300.142 114.733C299.74 114.731 299.36 114.722 299.002 114.71C299 114.71 298.999 114.71 298.998 114.71C298.97 114.71 298.944 114.721 298.925 114.739C298.904 114.759 298.893 114.786 298.893 114.815V115.158C298.893 115.217 298.939 115.263 298.998 115.263C299.184 115.263 299.335 115.272 299.452 115.289C299.553 115.304 299.63 115.335 299.68 115.375C299.725 115.415 299.758 115.48 299.779 115.565C299.801 115.668 299.814 115.808 299.814 115.984V120.532C299.814 120.709 299.802 120.855 299.779 120.97C299.757 121.07 299.722 121.144 299.677 121.191C299.624 121.243 299.546 121.281 299.448 121.302C299.331 121.326 299.181 121.337 298.998 121.337C298.939 121.337 298.893 121.383 298.893 121.442V121.776C298.893 121.804 298.904 121.831 298.924 121.851C298.943 121.87 298.97 121.881 298.998 121.881C298.999 121.881 300.179 121.867 300.179 121.867L301.442 121.862L302.734 121.867C302.734 121.867 303.97 121.881 303.971 121.881C304.02 121.881 304.062 121.847 304.074 121.8C304.129 121.553 304.199 121.287 304.281 121.004C304.364 120.714 304.447 120.445 304.527 120.193C304.537 120.161 304.531 120.127 304.512 120.099C304.492 120.071 304.461 120.056 304.427 120.056Z" fill="#3E352F"/>
<path d="M312.049 121.346C311.895 121.334 311.765 121.313 311.665 121.284C311.57 121.258 311.492 121.214 311.42 121.147C311.352 121.09 311.288 121.007 311.232 120.901C311.173 120.788 311.112 120.641 311.053 120.461L309.035 114.493C309.021 114.451 308.981 114.422 308.935 114.422H308.573C308.528 114.422 308.489 114.45 308.473 114.492L306.401 120.438C306.333 120.616 306.272 120.764 306.219 120.881C306.167 120.991 306.109 121.08 306.044 121.145C305.982 121.206 305.908 121.249 305.818 121.275C305.725 121.304 305.596 121.319 305.439 121.319C305.381 121.319 305.334 121.365 305.334 121.423V121.776C305.334 121.834 305.381 121.88 305.439 121.88L306.555 121.871L307.671 121.88C307.73 121.88 307.776 121.834 307.776 121.776V121.441C307.776 121.383 307.73 121.337 307.671 121.337C307.18 121.337 307.077 121.226 307.055 121.179C307.02 121.098 307.003 120.928 307.129 120.576L307.578 119.3H309.631L310.053 120.559C310.113 120.754 310.157 120.91 310.182 121.028C310.205 121.146 310.191 121.204 310.174 121.231C310.152 121.271 310.103 121.297 310.026 121.313C309.922 121.334 309.776 121.343 309.586 121.343C309.528 121.343 309.481 121.389 309.481 121.448V121.776C309.481 121.834 309.527 121.88 309.586 121.88L310.813 121.871L312.041 121.88C312.1 121.88 312.146 121.834 312.146 121.776V121.451C312.146 121.395 312.103 121.35 312.049 121.346ZM307.791 118.673L308.618 116.271L309.43 118.673H307.791Z" fill="#3E352F"/>
<path d="M320.681 114.691C320.678 114.691 320.4 114.703 320.182 114.705L319.49 114.71L318.795 114.705C318.573 114.703 318.284 114.691 318.282 114.691C318.255 114.691 318.229 114.702 318.21 114.72C318.188 114.74 318.177 114.767 318.177 114.796V115.149C318.177 115.205 318.222 115.252 318.278 115.253C318.472 115.26 318.625 115.274 318.741 115.293C318.841 115.311 318.915 115.345 318.965 115.394C319.014 115.439 319.047 115.507 319.067 115.601C319.088 115.71 319.098 115.852 319.098 116.031V120.206L314.479 114.702C314.413 114.708 314.311 114.713 314.17 114.714C314.028 114.719 313.253 114.72 313.253 114.72C313.112 114.72 313.006 114.713 312.935 114.703C312.929 114.702 312.924 114.702 312.918 114.702C312.893 114.702 312.869 114.71 312.851 114.726C312.827 114.745 312.814 114.775 312.814 114.806V115.149C312.814 115.208 312.86 115.254 312.919 115.254C313.337 115.254 313.63 115.31 313.79 115.418C313.938 115.517 314.013 115.726 314.013 116.04V120.513C314.013 120.713 313.999 120.872 313.97 120.985C313.945 121.082 313.901 121.159 313.837 121.212C313.778 121.262 313.69 121.296 313.577 121.313C313.448 121.331 313.285 121.341 313.087 121.341C313.028 121.341 312.982 121.387 312.982 121.445V121.794C312.982 121.823 312.994 121.851 313.014 121.87C313.034 121.889 313.06 121.899 313.087 121.899C313.088 121.899 313.423 121.889 313.641 121.885L314.322 121.881L315.568 121.891C315.627 121.891 315.673 121.844 315.673 121.785V121.445C315.673 121.387 315.627 121.341 315.568 121.341C315.381 121.341 315.231 121.332 315.117 121.317C315.026 121.305 314.958 121.274 314.905 121.215C314.854 121.168 314.82 121.097 314.802 120.996C314.782 120.877 314.771 120.713 314.771 120.504V116.39L319.342 121.982H319.77C319.829 121.982 319.875 121.936 319.875 121.878V116.03C319.875 115.838 319.882 115.685 319.897 115.571C319.909 115.48 319.936 115.414 319.985 115.371C320.029 115.326 320.102 115.296 320.199 115.28C320.317 115.263 320.477 115.253 320.681 115.253C320.739 115.253 320.786 115.207 320.786 115.149V114.796C320.786 114.767 320.774 114.74 320.753 114.72C320.734 114.702 320.708 114.691 320.681 114.691Z" fill="#3E352F"/>
<path d="M329.79 114.701C329.789 114.701 329.788 114.701 329.787 114.701C329.415 114.713 329.032 114.721 328.635 114.725L327.438 114.729L326.244 114.725C325.852 114.721 325.476 114.713 325.118 114.701C325.116 114.701 325.115 114.701 325.114 114.701C325.086 114.701 325.06 114.712 325.041 114.73C325.02 114.75 325.009 114.777 325.009 114.806V115.158C325.009 115.215 325.054 115.262 325.11 115.263C325.303 115.269 325.459 115.282 325.576 115.299C325.677 115.315 325.754 115.346 325.805 115.385C325.85 115.425 325.881 115.488 325.899 115.569C325.918 115.671 325.929 115.808 325.929 115.985V120.521C325.929 120.719 325.92 120.878 325.902 120.999C325.887 121.098 325.856 121.172 325.808 121.222C325.762 121.271 325.69 121.303 325.596 121.318C325.479 121.334 325.317 121.343 325.114 121.343C325.055 121.343 325.009 121.389 325.009 121.449V121.785C325.009 121.844 325.055 121.891 325.114 121.891L326.433 121.881L327.773 121.891C327.831 121.891 327.878 121.844 327.878 121.785V121.442C327.878 121.384 327.831 121.338 327.773 121.338C327.575 121.338 327.419 121.329 327.307 121.311C327.21 121.295 327.138 121.264 327.094 121.22C327.049 121.174 327.02 121.102 327.009 121.006C326.993 120.887 326.984 120.723 326.984 120.512V118.512H328.199C328.419 118.512 328.563 118.56 328.631 118.654C328.684 118.728 328.753 118.901 328.774 119.312C328.778 119.369 328.824 119.411 328.879 119.411H329.269C329.299 119.411 329.327 119.4 329.347 119.378C329.367 119.356 329.377 119.326 329.374 119.297C329.362 119.168 329.355 119.004 329.351 118.803L329.346 118.179L329.351 117.579C329.355 117.386 329.362 117.23 329.374 117.109C329.377 117.079 329.367 117.05 329.347 117.027C329.327 117.006 329.299 116.993 329.269 116.993H328.852C328.796 116.993 328.75 117.036 328.747 117.093C328.723 117.534 328.65 117.67 328.61 117.71C328.539 117.783 328.387 117.82 328.172 117.82H326.985V115.309H328.172C328.416 115.309 328.611 115.328 328.754 115.366C328.89 115.403 328.992 115.457 329.065 115.53C329.14 115.604 329.193 115.701 329.23 115.824C329.268 115.96 329.307 116.128 329.342 116.328C329.351 116.377 329.394 116.413 329.444 116.414C329.444 116.414 329.845 116.423 329.847 116.423C329.874 116.423 329.902 116.412 329.922 116.392C329.941 116.372 329.952 116.343 329.951 116.315L329.896 114.802C329.892 114.745 329.846 114.701 329.79 114.701Z" fill="#3E352F"/>
<path d="M337.214 115.662C336.896 115.325 336.519 115.052 336.091 114.851C335.661 114.647 335.197 114.543 334.712 114.543C334.177 114.543 333.682 114.654 333.238 114.873C332.797 115.093 332.415 115.383 332.104 115.739C331.793 116.093 331.549 116.5 331.378 116.95C331.207 117.396 331.122 117.861 331.122 118.331C331.122 118.825 331.214 119.303 331.397 119.751C331.581 120.196 331.839 120.593 332.162 120.928C332.48 121.264 332.859 121.536 333.291 121.737C333.727 121.936 334.196 122.038 334.683 122.038C335.217 122.038 335.709 121.928 336.148 121.712C336.582 121.498 336.961 121.208 337.272 120.853C337.584 120.503 337.829 120.095 337.999 119.644C338.169 119.195 338.255 118.727 338.255 118.258C338.255 117.768 338.163 117.295 337.98 116.849C337.796 116.405 337.539 116.005 337.214 115.662ZM336.912 119.718C336.807 120.07 336.655 120.379 336.459 120.635C336.265 120.887 336.026 121.085 335.747 121.221C335.471 121.359 335.15 121.429 334.795 121.429C334.378 121.429 334.01 121.322 333.706 121.112C333.393 120.9 333.131 120.623 332.922 120.289C332.712 119.96 332.553 119.59 332.452 119.192C332.349 118.793 332.296 118.406 332.296 118.044C332.296 117.625 332.353 117.232 332.464 116.879C332.574 116.527 332.735 116.221 332.943 115.966C333.143 115.719 333.386 115.522 333.666 115.381C333.945 115.241 334.256 115.169 334.591 115.169C335 115.169 335.363 115.277 335.67 115.49C335.981 115.707 336.242 115.981 336.444 116.308C336.654 116.643 336.812 117.012 336.915 117.406C337.018 117.8 337.07 118.181 337.07 118.535C337.07 118.963 337.016 119.36 336.912 119.718Z" fill="#3E352F"/>
<path d="M345.444 115.662C345.126 115.325 344.749 115.051 344.322 114.851C343.892 114.647 343.428 114.543 342.943 114.543C342.409 114.543 341.913 114.654 341.469 114.873C341.028 115.094 340.646 115.384 340.335 115.739C340.025 116.091 339.782 116.499 339.61 116.95C339.438 117.398 339.352 117.864 339.352 118.331C339.352 118.825 339.445 119.302 339.629 119.751C339.813 120.196 340.07 120.593 340.393 120.928C340.71 121.263 341.089 121.535 341.523 121.737C341.959 121.936 342.427 122.038 342.915 122.038C343.449 122.038 343.942 121.928 344.379 121.712C344.813 121.497 345.192 121.208 345.504 120.853C345.816 120.504 346.059 120.097 346.23 119.644C346.402 119.192 346.487 118.726 346.487 118.258C346.487 117.771 346.394 117.297 346.21 116.849C346.028 116.405 345.77 116.005 345.444 115.662ZM345.143 119.718C345.038 120.071 344.886 120.38 344.691 120.635C344.496 120.888 344.256 121.085 343.978 121.221C343.703 121.359 343.383 121.429 343.026 121.429C342.608 121.429 342.242 121.322 341.937 121.112C341.626 120.9 341.362 120.623 341.151 120.289C340.942 119.96 340.785 119.59 340.682 119.192C340.579 118.788 340.527 118.402 340.527 118.044C340.527 117.624 340.584 117.231 340.696 116.879C340.805 116.526 340.966 116.22 341.174 115.967C341.374 115.719 341.618 115.522 341.898 115.381C342.176 115.241 342.488 115.169 342.821 115.169C343.231 115.169 343.594 115.277 343.9 115.49C344.212 115.707 344.472 115.981 344.675 116.308C344.885 116.643 345.042 117.012 345.146 117.405C345.249 117.805 345.301 118.185 345.301 118.535C345.302 118.964 345.249 119.361 345.143 119.718Z" fill="#3E352F"/>
<path d="M352.917 115.807C352.578 115.476 352.161 115.208 351.674 115.011C351.19 114.811 350.627 114.71 349.995 114.71C349.779 114.717 349.549 114.719 349.305 114.719H347.85C347.617 114.719 347.406 114.717 347.222 114.71C347.22 114.71 347.219 114.71 347.218 114.71C347.191 114.71 347.165 114.721 347.145 114.739C347.125 114.759 347.113 114.786 347.113 114.815V115.149C347.113 115.208 347.159 115.254 347.218 115.254C347.408 115.254 347.56 115.266 347.674 115.286C347.769 115.303 347.842 115.335 347.892 115.386C347.937 115.425 347.968 115.488 347.985 115.569C348.006 115.669 348.016 115.798 348.016 115.956V120.569C348.016 120.747 348.007 120.889 347.99 120.998C347.976 121.085 347.945 121.154 347.898 121.201C347.853 121.245 347.78 121.276 347.681 121.291C347.564 121.309 347.41 121.319 347.219 121.319C347.16 121.319 347.114 121.365 347.114 121.424V121.776C347.114 121.835 347.16 121.881 347.219 121.881L348.549 121.871L349.887 121.881C350.565 121.881 351.168 121.778 351.679 121.576C352.187 121.375 352.617 121.101 352.954 120.766C353.292 120.434 353.547 120.048 353.713 119.615C353.878 119.182 353.961 118.736 353.961 118.287C353.961 117.831 353.871 117.382 353.693 116.953C353.515 116.521 353.253 116.136 352.917 115.807ZM352.677 119.429C352.57 119.789 352.402 120.11 352.175 120.381C351.951 120.653 351.66 120.871 351.311 121.03C350.963 121.19 350.537 121.271 350.045 121.271C349.814 121.271 349.628 121.265 349.487 121.253C349.365 121.242 349.273 121.215 349.213 121.17C349.154 121.129 349.119 121.072 349.103 120.994C349.082 120.893 349.072 120.754 349.072 120.578V115.343C349.072 115.343 349.423 115.326 349.502 115.323C349.581 115.32 349.676 115.318 349.785 115.318C350.731 115.318 351.486 115.58 352.028 116.097C352.567 116.612 352.842 117.342 352.842 118.267C352.841 118.674 352.785 119.065 352.677 119.429Z" fill="#3E352F"/>
<path d="M576.11 61.3407V61.5777H576.106V68.9217H576.11V70.0776L585.567 61.8159V53.079L576.11 61.3407Z" fill="#3E352F"/>
<path d="M0.251465 61.8159L9.70935 70.0776V61.3407L0.251465 53.079V61.8159Z" fill="#3E352F"/>
<path d="M9.70764 97.2085V76.0286L0.249756 67.7664V77.8186V87.4913V95.6742V105.117H0.775381C3.66802 105.117 6.41232 105.805 8.93555 107.164C11.9748 108.777 14.4433 111.238 16.0749 114.282C17.4279 116.806 18.1143 119.547 18.1143 122.427V122.952H27.5721H220.306V121.903H27.5609C27.5124 119.388 27.1165 116.924 26.3788 114.559H220.305V113.51H26.0252C23.3508 105.94 17.2942 99.8898 9.70764 97.2085ZM1.30101 77.818V70.0777L8.65695 76.5033V96.8566C6.28148 96.1252 3.81296 95.7322 1.30101 95.6838V87.4902V77.818ZM17.0015 113.785C15.2707 110.558 12.6522 107.949 9.43129 106.239C6.90918 104.88 4.17672 104.153 1.30044 104.074V100.933C12.761 101.208 22.0277 110.46 22.304 121.901H19.1571C19.0758 119.068 18.3348 116.272 17.0015 113.785ZM23.3553 121.901C23.0778 109.881 13.3408 100.16 1.30101 99.8836V96.7282C3.9438 96.7817 6.53527 97.2327 9.01395 98.0705C16.5814 100.623 22.6182 106.653 25.1617 114.2L25.1628 114.204C26.0082 116.669 26.4634 119.255 26.5158 121.902L23.3553 121.901Z" fill="#3E352F"/>
<path d="M296.129 42.7194C296.525 42.7194 296.845 42.3991 296.845 42.0044V37.0466C296.845 35.969 295.967 35.0923 294.888 35.0923H290.928C289.85 35.0923 288.971 35.969 288.971 37.0466V42.0044C288.971 42.3985 289.292 42.7194 289.687 42.7194C290.082 42.7194 290.403 42.3991 290.403 42.0044V37.0466C290.403 36.7567 290.639 36.5213 290.929 36.5213H294.888C295.178 36.5213 295.414 36.7567 295.414 37.0466V42.0044C295.414 42.3991 295.734 42.7194 296.129 42.7194Z" fill="#3E352F"/>
<path d="M257.2 45.3849C257.2 45.779 257.52 46.0994 257.915 46.0994H328.166C328.561 46.0994 328.882 45.7796 328.882 45.3849C328.882 44.9902 328.562 44.6698 328.166 44.6698H257.915C257.52 44.6698 257.2 44.9896 257.2 45.3849Z" fill="#3E352F"/>
<path d="M292.919 88.0622C297.916 88.0622 302.488 87.48 306.505 86.3308C306.885 86.2227 307.105 85.8263 306.996 85.448C306.887 85.0685 306.491 84.8494 306.11 84.9575C302.222 86.0701 297.783 86.6337 292.919 86.6337C287.856 86.6337 283.264 86.0696 279.269 84.9564C278.888 84.8505 278.493 85.073 278.387 85.453C278.281 85.8331 278.503 86.2272 278.884 86.3331C283.004 87.48 287.726 88.0622 292.919 88.0622Z" fill="#3E352F"/>
<path d="M327.768 59.7991C328.894 55.0103 328.885 51.0138 328.882 49.3071L328.881 49.0757C328.881 48.6816 328.561 48.3612 328.166 48.3612H257.671C257.276 48.3612 256.955 48.681 256.955 49.0757C256.955 49.2548 256.952 49.4772 256.948 49.7384C256.884 53.7299 256.693 65.8779 265.343 74.6508C271.473 80.8669 280.75 84.0195 292.919 84.0195C304.585 84.0195 313.625 80.8928 319.787 74.7274C323.665 70.8463 326.35 65.8238 327.768 59.7991ZM292.919 82.5758C281.152 82.5758 272.221 79.5685 266.373 73.6384C258.184 65.3317 258.331 53.7035 258.393 49.8043H327.437C327.434 51.6613 327.353 55.2524 326.361 59.4686C325.007 65.2292 322.449 70.0202 318.764 73.7083C312.882 79.5927 304.187 82.5758 292.919 82.5758Z" fill="#3E352F"/>
<path d="M298.912 60.7862C299.446 60.2496 300.157 59.8927 300.955 59.8127C300.694 59.4056 300.401 59.0239 300.079 58.6658C299.314 58.869 298.623 59.2665 298.07 59.802C298.378 60.1038 298.66 60.4338 298.912 60.7862Z" fill="#3E352F"/>
<path d="M301.296 60.6859C300.535 60.6859 299.855 61.0311 299.404 61.5716C299.403 61.5722 299.403 61.5722 299.403 61.5733C299.96 62.6088 300.276 63.7923 300.276 65.0508C300.276 66.2123 300.006 67.3114 299.525 68.2878H301.957C302.323 67.2754 302.519 66.187 302.519 65.0519C302.519 63.4669 302.136 61.9748 301.448 60.6572C301.402 60.6775 301.349 60.6859 301.296 60.6859Z" fill="#3E352F"/>
<path d="M297.486 70.8141C298.157 71.1965 298.645 71.858 298.784 72.6418C299.969 71.7274 300.934 70.5411 301.586 69.1785H299.009C298.587 69.7973 298.072 70.3502 297.486 70.8141Z" fill="#3E352F"/>
<path d="M292.143 57.73C292.144 57.7322 292.145 57.7328 292.146 57.735C292.396 57.7091 292.652 57.6956 292.91 57.6956C294.596 57.6956 296.151 58.262 297.393 59.2136C297.95 58.6601 298.626 58.226 299.375 57.9541C297.664 56.4006 295.396 55.4569 292.908 55.4569C291.849 55.4569 290.828 55.6281 289.874 55.9496C290.799 56.2992 291.589 56.9293 292.143 57.73Z" fill="#3E352F"/>
<path d="M287.692 59.8566H287.693C288.057 59.4912 288.462 59.1629 288.899 58.8808C288.675 58.775 288.425 58.717 288.163 58.717C287.915 58.717 287.716 58.5177 287.716 58.2705C287.716 58.0239 287.915 57.8234 288.163 57.8234C288.776 57.8234 289.34 58.034 289.788 58.387C290.219 58.1854 290.671 58.0239 291.144 57.909C290.492 57.1415 289.544 56.6292 288.474 56.5436C287.711 56.9338 287.012 57.4298 286.384 58.0103C286.409 58.0638 286.421 58.1201 286.421 58.1809C286.421 58.9782 286.958 59.6494 287.692 59.8566Z" fill="#3E352F"/>
<path d="M296.602 71.4155C295.516 72.045 294.256 72.4059 292.909 72.4059C288.84 72.4059 285.541 69.1132 285.541 65.0507C285.541 64.5513 285.591 64.0631 285.686 63.5919C285.581 63.3908 285.525 63.1634 285.525 62.9179C285.525 62.2873 285.904 61.7473 286.45 61.5074H286.451C286.583 61.2681 286.727 61.0373 286.885 60.8154H284.289C283.654 62.0924 283.299 63.5316 283.299 65.0513C283.299 70.3491 287.604 74.6458 292.909 74.6458C294.749 74.6458 296.469 74.1294 297.93 73.2314C297.938 73.2314 297.942 73.2274 297.946 73.219C297.934 73.1824 297.93 73.1458 297.93 73.1047C297.929 72.2911 297.362 71.5996 296.602 71.4155Z" fill="#3E352F"/>
<path d="M285.607 58.8199C285.301 59.1651 285.032 59.535 284.788 59.9218H286.189C285.912 59.6127 285.709 59.2344 285.607 58.8199Z" fill="#3E352F"/>
<path d="M292.093 70.9189C292.093 71.1655 292.294 71.366 292.541 71.366H293.953C294.103 71.3429 294.25 71.3131 294.394 71.2787C295.057 71.1222 295.663 70.8671 296.219 70.5163H296.225C296.248 70.5034 296.27 70.4899 296.292 70.4752C296.258 70.4735 296.223 70.4724 296.188 70.4724H292.54C292.294 70.4724 292.093 70.6723 292.093 70.9189Z" fill="#3E352F"/>
<path d="M287.068 63.5648C286.936 63.5648 286.815 63.5266 286.714 63.4584C286.697 63.5187 286.683 63.5806 286.669 63.6409C286.669 63.6527 286.663 63.66 286.663 63.6724C286.615 63.8971 286.577 64.1307 286.551 64.3689C286.713 64.4269 286.887 64.4578 287.068 64.4578C287.919 64.4578 288.609 63.767 288.609 62.9196C288.609 62.2619 288.195 61.7 287.613 61.4799C287.559 61.5587 287.507 61.6381 287.457 61.7191C287.345 61.9005 287.243 62.0874 287.151 62.2794C287.469 62.3182 287.716 62.5902 287.716 62.9196C287.716 63.2749 287.424 63.5648 287.068 63.5648Z" fill="#3E352F"/>
<path d="M298.378 66.995C298.624 66.995 298.824 66.7957 298.824 66.5485V63.1556C298.824 62.9951 298.84 62.838 298.87 62.686C298.838 62.6066 298.805 62.5272 298.769 62.4495C298.694 62.28 298.606 62.1122 298.519 61.9501C298.454 61.8324 298.386 61.7153 298.312 61.601C298.068 62.0661 297.93 62.5953 297.93 63.1556V64.6561H296.636V63.1556C296.636 62.182 296.936 61.2789 297.448 60.5312L297.432 60.5154C297.363 60.4461 297.294 60.378 297.219 60.3211C297.076 60.1871 296.925 60.0644 296.769 59.9445C296.121 60.851 295.741 61.9591 295.741 63.1556V66.5485C295.741 66.7952 295.941 66.995 296.188 66.995H296.836V68.2872H293.999C293.441 68.2872 292.987 67.8334 292.987 67.2771V60.4563C292.987 59.8223 292.864 59.2159 292.639 58.6613C292.436 58.6697 292.235 58.6872 292.038 58.7181C292.019 58.7181 291.994 58.7238 291.976 58.73C291.888 58.7412 291.799 58.7553 291.711 58.7711C291.957 59.2817 292.093 59.8538 292.093 60.4557V62.472H290.799V60.4557C290.799 60.4321 290.798 60.409 290.797 60.3859C290.798 60.3803 290.799 60.3741 290.799 60.369C290.799 60.3577 290.797 60.3499 290.796 60.3386C290.777 59.909 290.655 59.5053 290.452 59.1534C290.174 59.2671 289.906 59.4028 289.651 59.5543C289.72 59.6686 289.777 59.7924 289.819 59.9219H289.099C288.94 60.0396 288.786 60.1657 288.639 60.2958C288.457 60.4557 288.285 60.6291 288.126 60.8149H289.904V66.6099C289.707 66.5187 289.489 66.4658 289.258 66.4658C288.407 66.4658 287.717 67.1561 287.717 68.0046C287.717 68.8531 288.408 69.5446 289.258 69.5446C290.108 69.5446 290.799 68.8531 290.799 68.0046V63.365H292.094V67.2766C292.094 68.3261 292.949 69.1803 294 69.1803H297.814C297.899 69.08 297.98 68.977 298.058 68.87C298.17 68.7191 298.277 68.5643 298.377 68.4021C298.4 68.3638 298.424 68.3261 298.446 68.2867H297.731V66.9945H298.378V66.995ZM289.257 68.6515C288.9 68.6515 288.61 68.3616 288.61 68.0052C288.61 67.6493 288.9 67.3599 289.257 67.3599C289.614 67.3599 289.903 67.6499 289.903 68.0052C289.903 68.3616 289.614 68.6515 289.257 68.6515ZM296.636 66.1015V65.5485H297.931V66.1015H296.636Z" fill="#3E352F"/>
<path d="M9.70764 25.9471C17.2948 23.2653 23.3519 17.2147 26.0257 9.64666H559.792C562.466 17.2164 568.522 23.2658 576.109 25.9471V55.3898L585.567 47.1281V27.482V18.0396H585.041C582.149 18.0396 579.404 17.3509 576.884 15.9934L576.881 15.9923C573.842 14.378 571.373 11.9169 569.741 8.87358C568.389 6.35166 567.702 3.61015 567.702 0.728429V0.204224H558.245H27.5721H18.1143V0.728429C18.1143 3.60958 17.4279 6.34997 16.0749 8.87358C14.4433 11.9163 11.9743 14.3786 8.9333 15.9934C6.41176 17.3509 3.66745 18.0396 0.775381 18.0396H0.249756V27.482V47.1287L9.70764 55.3904V25.9471ZM577.159 53.079V26.2979C579.534 27.0293 582.003 27.4229 584.515 27.4713V46.6523L577.159 53.079ZM568.815 9.3702C570.544 12.5959 573.163 15.2068 576.384 16.918C578.866 18.2558 581.668 18.9996 584.515 19.0818V22.2231C573.055 21.9472 563.788 12.6956 563.511 1.25376H566.658C566.74 4.08874 567.481 6.88375 568.815 9.3702ZM562.46 1.25376C562.738 13.275 572.474 22.9956 584.515 23.272V26.4274C581.872 26.3745 579.28 25.9235 576.802 25.0856C569.234 22.5333 563.198 16.5041 560.653 8.95241C559.807 6.48792 559.352 3.90125 559.3 1.25376H562.46ZM558.255 1.25376C558.303 3.77062 558.7 6.23567 559.438 8.59769H26.3788C27.1165 6.23398 27.5124 3.76949 27.5609 1.25376H558.255ZM25.1612 8.95523C22.6171 16.5041 16.5808 22.5344 9.01338 25.0856C6.53471 25.9235 3.94324 26.3745 1.30044 26.4274V23.272C13.3408 22.9956 23.0773 13.2744 23.3547 1.25376H26.5153C26.4628 3.90012 26.0077 6.48792 25.1612 8.95523ZM17.0015 9.3702C18.3342 6.88262 19.0758 4.08762 19.1571 1.25376H22.304C22.0277 12.6956 12.7616 21.9472 1.30101 22.2231V19.0818C4.17785 19.0024 6.91088 18.276 9.42903 16.9191C12.6527 15.2068 15.2713 12.5959 17.0015 9.3702ZM1.30101 46.6529V27.4713C3.81352 27.4229 6.28205 27.0293 8.65695 26.2979V53.0785L1.30101 46.6529Z" fill="#3E352F"/>
<path d="M576.108 97.2085C568.521 99.8914 562.464 105.943 559.791 113.508H365.51V114.557H559.438C558.7 116.922 558.303 119.386 558.255 121.901H365.51V122.95H558.244H567.702V122.425C567.702 119.544 568.388 116.803 569.741 114.28C571.373 111.238 573.841 108.777 576.883 107.162C579.404 105.804 582.148 105.115 585.041 105.115H585.566V95.6725V87.4896V77.8169V67.7646L576.108 76.0269V97.2085ZM560.654 114.2C563.198 106.652 569.235 100.623 576.802 98.07C579.281 97.2321 581.872 96.7811 584.515 96.7276V99.883C572.474 100.159 562.738 109.881 562.461 121.901H559.3C559.353 119.255 559.808 116.668 560.654 114.2ZM576.388 106.238C573.163 107.949 570.546 110.559 568.815 113.785C567.481 116.272 566.74 119.067 566.658 121.901H563.511C563.788 110.46 573.055 101.208 584.515 100.933V104.074C581.669 104.156 578.869 104.9 576.388 106.238ZM584.515 70.0777V77.818V87.4907V95.6843C582.003 95.7327 579.534 96.1257 577.159 96.8571V76.5038L584.515 70.0777Z" fill="#3E352F"/>
</svg>
