<svg width="150" height="31" viewBox="0 0 150 31" fill="none" xmlns="http://www.w3.org/2000/svg">
<path fill-rule="evenodd" clip-rule="evenodd" d="M14.9907 3.15601C7.79943 3.15601 2 7.7955 2 13.4279C2 17.0839 4.41256 20.2851 8.03141 22.1131L6.80657 26.6878C6.78347 26.7563 6.77992 26.8299 6.79631 26.9004C6.8127 26.9708 6.84838 27.0354 6.89936 27.0867C6.97369 27.1523 7.06934 27.1885 7.16845 27.1887C7.25063 27.1822 7.3286 27.1497 7.39115 27.096L12.6617 23.5421C13.4397 23.6495 14.2239 23.7052 15.0093 23.7091C22.1913 23.7091 28 19.0696 28 13.4279C28 7.78622 22.1727 3.15601 14.9907 3.15601ZM6.54619 11.8038H5.12649C4.95053 11.8089 4.77674 11.7639 4.62542 11.6739C4.55824 11.6318 4.50048 11.5763 4.45577 11.5108C4.41106 11.4453 4.38036 11.3713 4.36561 11.2934C4.3611 11.244 4.3611 11.1944 4.36561 11.145C4.3612 11.0526 4.37913 10.9605 4.4179 10.8765C4.45667 10.7925 4.51512 10.7191 4.5883 10.6625C4.75007 10.5454 4.94533 10.4835 5.14505 10.4861H9.42271C9.60007 10.4799 9.77504 10.5285 9.92378 10.6254C9.99254 10.6656 10.0515 10.7206 10.0965 10.7864C10.1414 10.8522 10.1711 10.9271 10.1836 11.0058C10.1881 11.0521 10.1881 11.0988 10.1836 11.145C10.188 11.2388 10.1701 11.3322 10.1314 11.4177C10.0926 11.5032 10.0342 11.5782 9.9609 11.6367C9.80306 11.7538 9.6097 11.8128 9.41343 11.8038H8.04012V16.6846C8.0457 16.7886 8.02961 16.8926 7.99287 16.99C7.95613 17.0874 7.89955 17.1762 7.8267 17.2506C7.75685 17.3218 7.67289 17.3776 7.5802 17.4143C7.48751 17.4511 7.38815 17.468 7.28851 17.464C7.11425 17.469 6.94368 17.4133 6.806 17.3064C6.67493 17.2019 6.58597 17.0536 6.55547 16.8887C6.5463 16.821 6.5463 16.7524 6.55547 16.6846L6.54619 11.8038ZM10.8624 10.4775C10.73 10.5638 10.6341 10.696 10.5933 10.8487L8.62616 16.1841C8.61573 16.2128 8.6031 16.2423 8.59033 16.272C8.55767 16.3481 8.52409 16.4263 8.52409 16.4997C8.50816 16.5918 8.50816 16.6859 8.52409 16.778C8.51917 16.8305 8.51917 16.8833 8.52409 16.9358C8.55128 17.0897 8.63378 17.2282 8.75607 17.3255C8.88159 17.4197 9.03528 17.4688 9.19219 17.4647C9.33704 17.4829 9.48373 17.4503 9.60725 17.3725C9.73076 17.2946 9.82347 17.1764 9.86957 17.0379L10.2593 15.8966H12.6997L13.0894 17.0379C13.1366 17.1737 13.2282 17.2897 13.3494 17.3671C13.4706 17.4446 13.6144 17.4789 13.7575 17.4647C13.8506 17.4669 13.9431 17.45 14.0293 17.4148C14.1155 17.3797 14.1936 17.3272 14.2586 17.2606C14.3257 17.1998 14.3787 17.1252 14.4139 17.0418C14.4492 16.9585 14.4659 16.8685 14.4627 16.778C14.4659 16.7193 14.4659 16.6605 14.4627 16.6018C14.4305 16.4604 14.3902 16.3209 14.3421 16.1841L12.4863 10.9414C12.4419 10.7557 12.3293 10.5934 12.1708 10.4868C12.0212 10.4018 11.8509 10.36 11.679 10.3661H11.3264C11.1643 10.3589 11.0035 10.3975 10.8624 10.4775ZM10.6397 14.848L11.5212 12.0643L12.3935 14.848H10.6397ZM14.6752 11.1456C14.6658 10.9373 14.7392 10.7339 14.8793 10.5796C14.9506 10.5077 15.0362 10.4515 15.1305 10.4148C15.2248 10.378 15.3257 10.3614 15.4268 10.3661C15.6006 10.364 15.7703 10.4195 15.9093 10.5238C16.0382 10.6327 16.1238 10.7841 16.1506 10.9506C16.1597 11.0153 16.1597 11.081 16.1506 11.1456V16.0264H18.7023C18.8792 16.0241 19.0531 16.0723 19.2034 16.1655C19.271 16.2071 19.329 16.2626 19.3738 16.3281C19.4185 16.3937 19.449 16.4679 19.4632 16.546V16.6852C19.4676 16.7776 19.4497 16.8696 19.4109 16.9536C19.3722 17.0376 19.3137 17.1111 19.2405 17.1677C19.0788 17.2849 18.8835 17.3466 18.6838 17.344H15.5474C15.3477 17.3568 15.1491 17.3048 14.9814 17.1956C14.8314 17.0834 14.7314 16.9168 14.7031 16.7316C14.6963 16.6297 14.6963 16.5273 14.7031 16.4253L14.6752 11.1456ZM19.8348 10.5795C19.698 10.7358 19.6251 10.9378 19.6307 11.1455L19.575 16.6386C19.5658 16.7064 19.5658 16.7751 19.575 16.8429C19.6055 17.0077 19.6944 17.1559 19.8255 17.2604C19.9603 17.366 20.1275 17.4217 20.2987 17.4181C20.4012 17.4224 20.5034 17.4057 20.5992 17.369C20.6949 17.3323 20.7822 17.2763 20.8555 17.2046C20.9923 17.0483 21.0652 16.8463 21.0596 16.6386V15.0891L21.8855 14.2261L23.6114 17.0098C23.6829 17.1403 23.7847 17.2517 23.9083 17.3346C24.0225 17.3946 24.1506 17.4235 24.2795 17.4181C24.4735 17.4209 24.6629 17.3588 24.8177 17.2418C24.9 17.1718 24.9641 17.0829 25.0045 16.9827C25.0449 16.8825 25.0604 16.774 25.0496 16.6665V16.6202C24.9984 16.4641 24.9233 16.3169 24.8269 16.184V16.0912L22.9711 13.2147L24.5115 11.5258C24.5794 11.4492 24.6385 11.3652 24.6878 11.2754C24.7361 11.1906 24.7617 11.0946 24.762 10.997C24.7575 10.9756 24.7575 10.9535 24.762 10.9321C24.7657 10.9137 24.7657 10.8947 24.762 10.8763C24.7488 10.8014 24.7206 10.73 24.6792 10.6662C24.6377 10.6025 24.5838 10.5476 24.5207 10.5052C24.3868 10.4136 24.2282 10.3651 24.0661 10.366C23.9552 10.3638 23.8459 10.3928 23.7506 10.4495C23.6494 10.5302 23.5534 10.6168 23.4629 10.7093L21.1153 13.4188V11.1455C21.1199 11.0806 21.1199 11.0154 21.1153 10.9505C21.0853 10.783 20.9965 10.6316 20.8648 10.5237C20.7129 10.4131 20.5275 10.3582 20.3399 10.3683C20.1522 10.3785 19.9739 10.4531 19.8348 10.5795Z" fill="#A68C6F"/>
<path d="M88 15.2516C88 8.02734 82.1805 2.17236 75 2.17236C67.8195 2.17236 62 8.02734 62 15.2516C62 21.7809 66.7531 27.1914 72.9688 28.1724V19.0323H69.668V15.2516H72.9688V12.37C72.9688 9.09258 74.9086 7.28142 77.8793 7.28142C79.3012 7.28142 80.7891 7.53687 80.7891 7.53687V10.7556H79.1488C77.534 10.7556 77.0312 11.7646 77.0312 12.7992V15.2516H80.6367L80.0604 19.0323H77.0312V28.1724C83.2469 27.1914 88 21.7809 88 15.2516Z" fill="#A68C6F"/>
<path d="M135 4.51536C138.473 4.51536 138.881 4.53084 140.254 4.59277C141.523 4.64954 142.21 4.86113 142.669 5.04176C143.278 5.27915 143.711 5.55783 144.166 6.01198C144.62 6.46613 144.904 6.89964 145.136 7.50861C145.311 7.96792 145.528 8.6543 145.585 9.92385C145.647 11.2966 145.662 11.7043 145.662 15.1775C145.662 18.6507 145.647 19.0584 145.585 20.4312C145.528 21.7007 145.316 22.3871 145.136 22.8464C144.898 23.4554 144.62 23.8889 144.166 24.3431C143.711 24.7972 143.278 25.0811 142.669 25.3133C142.21 25.4888 141.523 25.7055 140.254 25.7623C138.881 25.8242 138.473 25.8397 135 25.8397C131.527 25.8397 131.119 25.8242 129.746 25.7623C128.477 25.7055 127.79 25.4939 127.331 25.3133C126.722 25.0759 126.289 24.7972 125.834 24.3431C125.38 23.8889 125.096 23.4554 124.864 22.8464C124.689 22.3871 124.472 21.7007 124.415 20.4312C124.353 19.0584 124.338 18.6507 124.338 15.1775C124.338 11.7043 124.353 11.2966 124.415 9.92385C124.472 8.6543 124.684 7.96792 124.864 7.50861C125.102 6.89964 125.38 6.46613 125.834 6.01198C126.289 5.55783 126.722 5.27399 127.331 5.04176C127.79 4.86629 128.477 4.64954 129.746 4.59277C131.119 4.52568 131.532 4.51536 135 4.51536ZM135 2.17236C131.47 2.17236 131.026 2.18785 129.638 2.24977C128.255 2.3117 127.31 2.53362 126.485 2.85359C125.628 3.18388 124.906 3.63286 124.183 4.35537C123.461 5.07788 123.017 5.80555 122.681 6.65708C122.361 7.4828 122.139 8.42723 122.077 9.81548C122.015 11.1986 122 11.6424 122 15.1724C122 18.7023 122.015 19.1462 122.077 20.5344C122.139 21.9175 122.361 22.8619 122.681 23.6928C123.012 24.5495 123.461 25.272 124.183 25.9945C124.906 26.717 125.633 27.1609 126.485 27.4963C127.31 27.8163 128.255 28.0382 129.643 28.1001C131.031 28.162 131.47 28.1775 135.005 28.1775C138.54 28.1775 138.979 28.162 140.367 28.1001C141.75 28.0382 142.695 27.8163 143.526 27.4963C144.382 27.166 145.105 26.717 145.827 25.9945C146.55 25.272 146.994 24.5443 147.329 23.6928C147.649 22.8671 147.871 21.9227 147.933 20.5344C147.995 19.1462 148.01 18.7075 148.01 15.1724C148.01 11.6372 147.995 11.1986 147.933 9.81032C147.871 8.42723 147.649 7.4828 147.329 6.65192C146.999 5.79523 146.55 5.07272 145.827 4.35021C145.105 3.6277 144.377 3.18388 143.526 2.84843C142.7 2.52846 141.755 2.30654 140.367 2.24461C138.974 2.18785 138.53 2.17236 135 2.17236Z" fill="#A68C6F"/>
<path d="M135 8.49927C131.315 8.49927 128.322 11.4874 128.322 15.1773C128.322 18.8673 131.31 21.8554 135 21.8554C138.69 21.8554 141.678 18.8673 141.678 15.1773C141.678 11.4874 138.69 8.49927 135 8.49927ZM135 19.5072C132.605 19.5072 130.665 17.5668 130.665 15.1722C130.665 12.7776 132.605 10.8371 135 10.8371C137.395 10.8371 139.335 12.7776 139.335 15.1722C139.335 17.5668 137.395 19.5072 135 19.5072Z" fill="#A68C6F"/>
<path d="M141.941 9.78972C142.802 9.78972 143.5 9.09193 143.5 8.23116C143.5 7.3704 142.802 6.67261 141.941 6.67261C141.08 6.67261 140.383 7.3704 140.383 8.23116C140.383 9.09193 141.08 9.78972 141.941 9.78972Z" fill="#A68C6F"/>
</svg>
